<svg width="133" height="34" viewBox="0 0 133 34" fill="none" xmlns="http://www.w3.org/2000/svg">
<g style="mix-blend-mode:luminosity" clip-path="url(#clip0_44_1712)">
<path d="M40.1599 23.5405H49.5184V20.7217H43.4861V10.1042H40.1599V23.5405Z" fill="#1A1414"/>
<path d="M55.0629 21.6614C53.7286 21.6614 53.0333 20.4963 53.0333 18.7486C53.0333 17.001 53.7286 15.8171 55.0629 15.8171C56.3971 15.8171 57.1112 17.001 57.1112 18.7486C57.1112 20.4963 56.3971 21.6614 55.0629 21.6614ZM55.0817 23.8413C58.1823 23.8413 60.2119 21.6426 60.2119 18.7486C60.2119 15.8547 58.1823 13.656 55.0817 13.656C51.9998 13.656 49.9326 15.8547 49.9326 18.7486C49.9326 21.6426 51.9998 23.8413 55.0817 23.8413Z" fill="#1A1414"/>
<path d="M65.579 26.8668C67.0071 26.8668 68.2662 26.5473 69.1119 25.7956C69.8823 25.1003 70.3897 24.048 70.3897 22.601V13.9191H67.4582V14.9526H67.4206C66.8568 14.1446 65.9924 13.6372 64.7145 13.6372C62.3279 13.6372 60.6742 15.6292 60.6742 18.448C60.6742 21.3983 62.685 23.0144 64.8461 23.0144C66.0112 23.0144 66.7441 22.5446 67.3078 21.9057H67.383V22.8641C67.383 24.0292 66.838 24.7057 65.5414 24.7057C64.5266 24.7057 64.0192 24.2735 63.8501 23.7661H60.881C61.1816 25.7768 62.9293 26.8668 65.579 26.8668ZM65.5602 20.7406C64.4138 20.7406 63.6622 19.801 63.6622 18.354C63.6622 16.8882 64.4138 15.9486 65.5602 15.9486C66.838 15.9486 67.5145 17.0386 67.5145 18.3352C67.5145 19.6882 66.8944 20.7406 65.5602 20.7406Z" fill="#1A1414"/>
<path d="M76.4175 21.6614C75.0832 21.6614 74.3879 20.4963 74.3879 18.7486C74.3879 17.001 75.0832 15.8171 76.4175 15.8171C77.7517 15.8171 78.4658 17.001 78.4658 18.7486C78.4658 20.4963 77.7517 21.6614 76.4175 21.6614ZM76.4363 23.8413C79.537 23.8413 81.5665 21.6426 81.5665 18.7486C81.5665 15.8547 79.537 13.656 76.4363 13.656C73.3544 13.656 71.2873 15.8547 71.2873 18.7486C71.2873 21.6426 73.3544 23.8413 76.4363 23.8413Z" fill="#1A1414"/>
<path d="M82.4607 23.5405H85.5238V13.919H82.4607V23.5405ZM82.4607 12.5848H85.5238V10.1042H82.4607V12.5848Z" fill="#1A1414"/>
<path d="M86.8533 26.7164H89.9164V22.5446H89.954C90.5553 23.3527 91.4386 23.8413 92.6788 23.8413C95.197 23.8413 96.8695 21.8493 96.8695 18.7298C96.8695 15.8359 95.3097 13.6372 92.754 13.6372C91.4386 13.6372 90.499 14.2198 89.8412 15.0842H89.7849V13.9191H86.8533V26.7164ZM91.8896 21.4735C90.5741 21.4735 89.8225 20.4023 89.8225 18.8426C89.8225 17.2829 90.499 16.099 91.8332 16.099C93.1486 16.099 93.7688 17.1889 93.7688 18.8426C93.7688 20.4775 93.0547 21.4735 91.8896 21.4735Z" fill="#1A1414"/>
<path d="M101.856 23.8413C104.375 23.8413 106.235 22.7513 106.235 20.6466C106.235 18.1849 104.243 17.7527 102.552 17.4708C101.33 17.2453 100.24 17.1513 100.24 16.4748C100.24 15.8735 100.823 15.5916 101.575 15.5916C102.42 15.5916 103.003 15.8547 103.115 16.7191H105.934C105.784 14.8211 104.318 13.6372 101.593 13.6372C99.3195 13.6372 97.4403 14.6896 97.4403 16.7191C97.4403 18.9741 99.2255 19.4251 100.898 19.707C102.176 19.9325 103.341 20.0265 103.341 20.8909C103.341 21.5111 102.758 21.8493 101.838 21.8493C100.823 21.8493 100.184 21.3795 100.071 20.4211H97.1772C97.2711 22.5446 99.0376 23.8413 101.856 23.8413Z" fill="#1A1414"/>
<path d="M110.396 23.8225C111.73 23.8225 112.576 23.2963 113.271 22.3567H113.327V23.5406H116.259V13.9191H113.196V19.2936C113.196 20.4399 112.557 21.2292 111.505 21.2292C110.527 21.2292 110.058 20.6466 110.058 19.5943V13.9191H107.013V20.2332C107.013 22.3755 108.178 23.8225 110.396 23.8225Z" fill="#1A1414"/>
<path d="M117.591 23.5406H120.654V18.1473C120.654 17.001 121.218 16.1929 122.176 16.1929C123.097 16.1929 123.529 16.7943 123.529 17.8278V23.5406H126.592V18.1473C126.592 17.001 127.137 16.1929 128.114 16.1929C129.035 16.1929 129.467 16.7943 129.467 17.8278V23.5406H132.53V17.2829C132.53 15.1218 131.441 13.6372 129.261 13.6372C128.02 13.6372 126.987 14.1634 126.235 15.3285H126.198C125.709 14.2949 124.751 13.6372 123.491 13.6372C122.101 13.6372 121.18 14.2949 120.579 15.2909H120.522V13.9191H117.591V23.5406Z" fill="#1A1414"/>
<path fill-rule="evenodd" clip-rule="evenodd" d="M16.5322 1.31018C25.3502 1.31018 32.4986 8.45856 32.4986 17.2766C32.4986 26.0946 25.3502 33.243 16.5322 33.243C7.71415 33.243 0.56575 26.0946 0.56575 17.2766C0.56575 8.45856 7.71415 1.31018 16.5322 1.31018ZM31.8857 17.2766C31.8857 8.79705 25.0117 1.92297 16.5322 1.92297C15.8482 1.92297 15.1747 1.9677 14.5143 2.05438C14.941 2.01708 15.3727 1.99804 15.809 1.99804C23.9117 1.99804 30.4802 8.56654 30.4802 16.6692C30.4802 24.7717 23.9117 31.3403 15.809 31.3403C8.138 31.3403 1.84204 25.453 1.19306 17.9502C1.54561 26.1172 8.27827 32.6302 16.5322 32.6302C25.0117 32.6302 31.8857 25.7561 31.8857 17.2766ZM29.8673 16.6692C29.8673 8.90495 23.5732 2.61084 15.809 2.61084C15.1786 2.61084 14.5579 2.65234 13.9494 2.73274C14.324 2.70122 14.7031 2.68514 15.0859 2.68514C22.4732 2.68514 28.4618 8.67373 28.4618 16.0609C28.4618 23.4482 22.4732 29.4368 15.0859 29.4368C8.10106 29.4368 2.36667 24.0829 1.76269 17.2549C2.06977 24.7475 8.24108 30.7275 15.809 30.7275C23.5732 30.7275 29.8673 24.4333 29.8673 16.6692ZM15.0859 3.29794C22.1347 3.29794 27.849 9.01214 27.849 16.0609C27.849 23.1098 22.1347 28.8239 15.0859 28.8239C8.20044 28.8239 2.58838 23.3714 2.33206 16.5486C2.88545 22.7069 8.06052 27.5332 14.3629 27.5332C21.0343 27.5332 26.4426 22.125 26.4426 15.4535C26.4426 8.78202 21.0343 3.37376 14.3629 3.37376C14.0177 3.37376 13.676 3.38824 13.3382 3.41661C13.9096 3.33836 14.493 3.29794 15.0859 3.29794ZM25.8298 15.4535C25.8298 9.12051 20.6959 3.98656 14.3629 3.98656C13.8278 3.98656 13.3012 4.02321 12.7857 4.09413C13.0672 4.0721 13.3517 4.06088 13.6389 4.06088C19.5951 4.06088 24.4234 8.88921 24.4234 14.8453C24.4234 20.8014 19.5951 25.6298 13.6389 25.6298C8.03293 25.6298 3.42598 21.3523 2.90379 15.8831C3.12971 22.0171 8.17366 26.9205 14.3629 26.9205C20.6959 26.9205 25.8298 21.7866 25.8298 15.4535ZM13.6389 4.67367C19.2566 4.67367 23.8106 9.2277 23.8106 14.8453C23.8106 20.463 19.2566 25.017 13.6389 25.017C8.13196 25.017 3.64713 20.6406 3.47257 15.1761C3.94404 19.976 7.99199 23.7263 12.9158 23.7263C18.1566 23.7263 22.405 19.4778 22.405 14.2371C22.405 8.9964 18.1566 4.74797 12.9158 4.74797C12.6755 4.74797 12.4373 4.7569 12.2014 4.77446C12.6711 4.70803 13.151 4.67367 13.6389 4.67367ZM21.7922 14.2371C21.7922 9.33482 17.8181 5.36077 12.9158 5.36077C12.4683 5.36077 12.0286 5.39388 11.5989 5.45779C11.795 5.44374 11.9931 5.43659 12.1928 5.43659C16.7177 5.43659 20.3859 9.10477 20.3859 13.6297C20.3859 18.1546 16.7177 21.8227 12.1928 21.8227C7.95267 21.8227 4.46488 18.6019 4.04258 14.4733C4.16777 19.2664 8.09255 23.1135 12.9158 23.1135C17.8181 23.1135 21.7922 19.1394 21.7922 14.2371ZM12.1928 6.04939C16.3793 6.04939 19.773 9.44318 19.773 13.6297C19.773 17.8162 16.3793 21.21 12.1928 21.21C8.05956 21.21 4.69899 17.902 4.61412 13.7892C4.99593 17.2374 7.91962 19.9193 11.4697 19.9193C15.2792 19.9193 18.3675 16.831 18.3675 13.0215C18.3675 9.21196 15.2792 6.12369 11.4697 6.12369C11.324 6.12369 11.1794 6.12821 11.0359 6.13711C11.4131 6.07935 11.7994 6.04939 12.1928 6.04939ZM17.7547 13.0215C17.7547 9.55038 14.9408 6.73649 11.4697 6.73649C11.1211 6.73649 10.7792 6.76487 10.446 6.81944C10.5453 6.81421 10.6452 6.81156 10.7458 6.81156C13.8399 6.81156 16.3483 9.31986 16.3483 12.414C16.3483 15.5082 13.8399 18.0166 10.7458 18.0166C7.88476 18.0166 5.52461 15.8719 5.1852 13.1026C5.22865 16.5364 8.02567 19.3065 11.4697 19.3065C14.9408 19.3065 17.7547 16.4926 17.7547 13.0215ZM10.7458 7.42435C13.5015 7.42435 15.7355 9.65827 15.7355 12.414C15.7355 15.1698 13.5015 17.4037 10.7458 17.4037C7.99005 17.4037 5.75609 15.1698 5.75609 12.414C5.75609 12.4075 5.75611 12.4008 5.75613 12.3942C6.04304 14.4942 7.84391 16.1123 10.0227 16.1123C12.4011 16.1123 14.3291 14.1843 14.3291 11.8059C14.3291 9.42745 12.4011 7.49943 10.0227 7.49943C9.96892 7.49943 9.91537 7.50041 9.86204 7.50237C10.1489 7.45111 10.4442 7.42435 10.7458 7.42435ZM13.7163 11.8059C13.7163 9.76594 12.0627 8.11222 10.0227 8.11222C7.98276 8.11222 6.32907 9.76594 6.32907 11.8059C6.32907 13.8458 7.98276 15.4995 10.0227 15.4995C12.0627 15.4995 13.7163 13.8458 13.7163 11.8059Z" fill="#1A1414"/>
</g>
<defs>
<clipPath id="clip0_44_1712">
<rect width="132.327" height="32.886" fill="white" transform="translate(0.336456 0.557007)"/>
</clipPath>
</defs>
</svg>
