<svg width="83" height="58" viewBox="0 0 83 58" fill="none" xmlns="http://www.w3.org/2000/svg">
<path d="M7.41731 52.5495V40.745H5.48199V52.5495H7.41731Z" fill="#152C4F"/>
<path d="M8.60187 48.6146C8.60187 51.0263 10.2199 52.7398 12.6787 52.7398C15.1375 52.7398 16.7556 51.0263 16.7556 48.6146C16.7556 46.2029 15.1375 44.4894 12.6787 44.4894C10.2199 44.4894 8.60187 46.2029 8.60187 48.6146ZM10.553 48.6146C10.553 47.2025 11.3938 46.2188 12.6787 46.2188C13.9636 46.2188 14.8044 47.2025 14.8044 48.6146C14.8044 50.0108 13.9636 51.0104 12.6787 51.0104C11.3938 51.0104 10.553 50.0108 10.553 48.6146Z" fill="#152C4F"/>
<path d="M17.4065 48.456C17.4065 50.7408 18.8817 52.3908 21.0868 52.3908C22.2289 52.3908 23.2124 51.9307 23.7042 51.1691V52.5019C23.7042 53.787 22.8952 54.6439 21.5468 54.6439C20.3412 54.6439 19.5163 54.0568 19.4053 53.0255H17.4541C17.7079 55.0722 19.2783 56.405 21.4357 56.405C23.9739 56.405 25.5919 54.739 25.5919 52.1528V44.7116H23.8787L23.7677 45.7746C23.2918 44.9495 22.3082 44.4576 21.1502 44.4576C18.9135 44.4576 17.4065 46.1553 17.4065 48.456ZM19.3735 48.4083C19.3735 47.1073 20.1984 46.1553 21.4199 46.1553C22.7524 46.1553 23.6407 47.1232 23.6407 48.4083C23.6407 49.7094 22.7524 50.709 21.4199 50.709C20.2143 50.709 19.3735 49.7253 19.3735 48.4083Z" fill="#152C4F"/>
<path d="M26.5497 48.6146C26.5497 51.0263 28.1677 52.7398 30.6265 52.7398C33.0853 52.7398 34.7033 51.0263 34.7033 48.6146C34.7033 46.2029 33.0853 44.4894 30.6265 44.4894C28.1677 44.4894 26.5497 46.2029 26.5497 48.6146ZM28.5008 48.6146C28.5008 47.2025 29.3416 46.2188 30.6265 46.2188C31.9114 46.2188 32.7522 47.2025 32.7522 48.6146C32.7522 50.0108 31.9114 51.0104 30.6265 51.0104C29.3416 51.0104 28.5008 50.0108 28.5008 48.6146Z" fill="#152C4F"/>
<path d="M36.7978 43.1091C37.4323 43.1091 37.9559 42.6013 37.9559 41.9508C37.9559 41.3162 37.4323 40.8085 36.7978 40.8085C36.1474 40.8085 35.6556 41.3162 35.6556 41.9508C35.6556 42.6013 36.1474 43.1091 36.7978 43.1091ZM35.8302 52.5495H37.7655V44.7116H35.8302V52.5495Z" fill="#152C4F"/>
<path d="M39.461 56.1828H41.3487V51.4706C41.8405 52.2797 42.9033 52.7557 44.0772 52.7557C46.3932 52.7557 47.7733 50.9787 47.7415 48.5352C47.694 46.076 46.2822 44.4735 44.0613 44.4735C42.8716 44.4735 41.7929 44.9971 41.3169 45.9015L41.2059 44.7115H39.461V56.1828ZM41.428 48.6305C41.428 47.2184 42.2847 46.2346 43.633 46.2346C44.9814 46.2346 45.7904 47.2342 45.7904 48.6305C45.7904 50.0267 44.9814 51.0104 43.633 51.0104C42.2847 51.0104 41.428 50.0426 41.428 48.6305Z" fill="#152C4F"/>
<path d="M48.233 50.2012C48.2965 51.7561 49.5021 52.7557 51.3739 52.7557C53.214 52.7557 54.4672 51.772 54.4672 50.2488C54.4672 49.1223 53.7693 48.3607 52.4844 48.0434L51.1042 47.7102C50.5173 47.5516 50.1207 47.3453 50.1207 46.8376C50.1207 46.2981 50.549 45.9174 51.247 45.9174C51.9767 45.9174 52.4526 46.3298 52.4526 47.0122H54.2135C54.15 45.4572 52.992 44.4735 51.2946 44.4735C49.6131 44.4735 48.3599 45.4572 48.3599 46.9487C48.3599 47.9641 48.9468 48.805 50.4539 49.2017L51.8181 49.5507C52.3257 49.6935 52.643 49.9315 52.643 50.3758C52.643 50.9946 52.0561 51.2801 51.3422 51.2801C50.4856 51.2801 49.9938 50.8835 49.9938 50.2012H48.233Z" fill="#152C4F"/>
<path d="M58.4815 52.7557C59.5443 52.7557 60.5596 52.2638 61.0196 51.534L61.1465 52.5495H62.9549V44.7115H61.0196V48.8209C61.0196 50.233 60.4803 51.0263 59.2112 51.0263C58.2277 51.0263 57.5456 50.5503 57.5456 48.9319V44.7115H55.6102V49.6142C55.6102 51.4864 56.6255 52.7557 58.4815 52.7557Z" fill="#152C4F"/>
<path d="M66.5984 52.5495V48.0434C66.5984 46.7741 67.344 46.1712 68.2641 46.1712C69.1841 46.1712 69.7869 46.7582 69.7869 47.8689V52.5495H71.6747V48.0593C71.6747 46.7741 72.4043 46.1712 73.3244 46.1712C74.2604 46.1712 74.8632 46.7582 74.8632 47.8689V52.5495H76.735V47.4246C76.735 45.6159 75.7356 44.4735 73.8321 44.4735C72.6423 44.4735 71.7064 45.0447 71.3257 45.965C70.8974 45.0447 70.0408 44.4735 68.74 44.4735C67.8199 44.4735 66.995 44.9019 66.535 45.6L66.4397 44.7115H64.6631V52.5495H66.5984Z" fill="#152C4F"/>
<path d="M36.4003 30.0588C33.8507 34.647 28.6595 36.8299 23.4104 36.8299H2.34998C24.274 34.0894 39.5425 23.1274 41.5 7.85889C43.4575 23.1274 58.726 34.0894 80.65 36.8299H59.5896C54.3405 36.8299 49.1493 34.647 46.5997 30.0588C43.8401 25.0927 42.0819 19.4734 41.5 13.3399C40.9181 19.4734 39.1599 25.0927 36.4003 30.0588Z" fill="#1A4688"/>
<path d="M24.3563 28.4372C23.1264 29.1297 21.8327 29.78 20.4782 30.3858C19.7087 27.7278 19.4256 24.9392 19.6514 22.1613C19.9501 18.4862 21.1303 14.9432 23.0875 11.8462C25.0448 8.74925 27.7185 6.19368 30.8719 4.406C34.0254 2.61834 37.5613 1.6537 41.1663 1.59757C44.7713 1.54143 48.3342 2.39552 51.5394 4.08418C54.7446 5.77283 57.4932 8.2439 59.5416 11.2786C61.5901 14.3132 62.8752 17.8178 63.2832 21.4818C63.6169 24.4787 63.3553 27.5067 62.5218 30.3858C61.1672 29.78 59.8736 29.1296 58.6437 28.4372C59.1622 26.3323 59.3075 24.1426 59.066 21.973C58.737 19.0184 57.7006 16.1923 56.0488 13.7452C54.3969 11.2981 52.1804 9.30533 49.5957 7.94362C47.0111 6.58188 44.1379 5.89315 41.2309 5.93842C38.3238 5.98368 35.4725 6.76156 32.9296 8.2031C30.3866 9.64468 28.2305 11.7055 26.6522 14.2029C25.0739 16.7004 24.1222 19.5574 23.8813 22.521C23.7194 24.5129 23.8819 26.5118 24.3563 28.4372Z" fill="#7FB5E6"/>
</svg>
