<svg width="83" height="32" viewBox="0 0 83 32" fill="none" xmlns="http://www.w3.org/2000/svg">
<g style="mix-blend-mode:luminosity" clip-path="url(#clip0_44_1730)">
<path d="M38.083 27.9315H40.224V19.8554H38.083V27.9315ZM38.083 18.5959H40.224V16.6753H38.083V18.5959Z" fill="black"/>
<path d="M41.6036 30.5762H43.7446V27.0183H43.7762C44.2327 27.711 44.9726 28.1676 46.1061 28.1676C48.1842 28.1676 49.601 26.5146 49.601 23.9012C49.601 21.3823 48.2314 19.6349 46.0903 19.6349C44.9883 19.6349 44.2327 20.1544 43.7132 20.8628H43.6659V19.8553H41.6036V30.5762ZM45.6496 26.3886C44.3744 26.3886 43.6974 25.4283 43.6974 23.9642C43.6974 22.5159 44.2327 21.3666 45.5708 21.3666C46.8932 21.3666 47.4285 22.4371 47.4285 23.9642C47.4285 25.4913 46.7358 26.3886 45.6496 26.3886Z" fill="black"/>
<path d="M53.872 28.1676C55.887 28.1676 57.2724 27.1915 57.2724 25.57C57.2724 23.6808 55.7768 23.303 54.423 23.0196C53.2737 22.7835 52.2031 22.7205 52.2031 22.0278C52.2031 21.4453 52.7541 21.1304 53.5886 21.1304C54.5016 21.1304 55.0526 21.4453 55.1471 22.3112H57.0835C56.926 20.6897 55.7454 19.6349 53.6201 19.6349C51.7781 19.6349 50.3297 20.4693 50.3297 22.2167C50.3297 23.9799 51.7467 24.3735 53.195 24.6569C54.297 24.8772 55.3203 24.956 55.3203 25.7274C55.3203 26.2942 54.785 26.6562 53.8404 26.6562C52.8801 26.6562 52.2189 26.2469 52.0772 25.3181H50.0936C50.2196 27.0341 51.5262 28.1676 53.872 28.1676Z" fill="black"/>
<path d="M65.4012 27.9314V19.8553H63.2602V24.5152C63.2602 25.5857 62.6463 26.3414 61.6387 26.3414C60.7256 26.3414 60.3005 25.8219 60.3005 24.8773V19.8553H58.1752V25.2394C58.1752 27.0026 59.1828 28.1519 60.9775 28.1519C62.111 28.1519 62.7407 27.7268 63.2918 26.9868H63.339V27.9314H65.4012Z" fill="black"/>
<path d="M66.7861 27.9314H68.9272V23.24C68.9272 22.1695 69.5097 21.4768 70.3756 21.4768C71.1627 21.4768 71.6193 21.949 71.6193 22.8622V27.9314H73.7603V23.24C73.7603 22.1695 74.3113 21.4768 75.2086 21.4768C75.9958 21.4768 76.4524 21.949 76.4524 22.8622V27.9314H78.5934V22.5001C78.5934 20.7369 77.633 19.6349 75.9328 19.6349C74.9095 19.6349 74.0594 20.1701 73.5084 21.0517H73.477C73.0833 20.2016 72.2647 19.6349 71.2414 19.6349C70.1237 19.6349 69.3365 20.2016 68.8957 20.9416H68.8485V19.8553H66.7861V27.9314Z" fill="black"/>
<path d="M38.1145 14.0988H40.2555V2.84265H38.1145V14.0988Z" fill="black"/>
<path d="M45.4906 14.335C47.9938 14.335 49.7098 12.4774 49.7098 10.0687C49.7098 7.66003 47.9938 5.80237 45.4906 5.80237C42.9875 5.80237 41.2715 7.66003 41.2715 10.0687C41.2715 12.4774 42.9875 14.335 45.4906 14.335ZM45.4906 12.6978C44.1682 12.6978 43.4441 11.643 43.4441 10.0687C43.4441 8.49439 44.1682 7.42389 45.4906 7.42389C46.7973 7.42389 47.5372 8.49439 47.5372 10.0687C47.5372 11.643 46.7973 12.6978 45.4906 12.6978Z" fill="black"/>
<path d="M54.2629 16.8539C55.4594 16.8539 56.4985 16.5706 57.1754 15.9408C57.7736 15.3898 58.1357 14.6184 58.1357 13.4849V6.02277H56.0734V6.87289H56.0419C55.5538 6.19594 54.8139 5.80237 53.8063 5.80237C51.7598 5.80237 50.3114 7.34518 50.3114 9.75385C50.3114 12.194 52.0747 13.6108 53.8694 13.6108C54.8927 13.6108 55.5066 13.2016 55.9789 12.6663H56.0261V13.5479C56.0261 14.6499 55.4437 15.2323 54.2314 15.2323C53.2396 15.2323 52.7831 14.8388 52.6099 14.335H50.4846C50.705 15.9093 52.0589 16.8539 54.2629 16.8539ZM54.2314 11.8949C53.1294 11.8949 52.4052 11.092 52.4052 9.72237C52.4052 8.36849 53.1294 7.51835 54.2157 7.51835C55.5066 7.51835 56.1363 8.52587 56.1363 9.70664C56.1363 10.9031 55.5853 11.8949 54.2314 11.8949Z" fill="black"/>
<path d="M63.3398 14.335C65.8429 14.335 67.559 12.4774 67.559 10.0687C67.559 7.66003 65.8429 5.80237 63.3398 5.80237C60.8367 5.80237 59.1207 7.66003 59.1207 10.0687C59.1207 12.4774 60.8367 14.335 63.3398 14.335ZM63.3398 12.6978C62.0174 12.6978 61.2932 11.643 61.2932 10.0687C61.2932 8.49439 62.0174 7.42389 63.3398 7.42389C64.6465 7.42389 65.3864 8.49439 65.3864 10.0687C65.3864 11.643 64.6465 12.6978 63.3398 12.6978Z" fill="black"/>
<path d="M69.4358 11.0133H78.6925V9.17139H69.4358V11.0133Z" fill="black"/>
<path d="M79.3714 18.4834C79.3714 18.1211 79.665 17.8274 80.0275 17.8274H81.3391C81.7016 17.8274 81.9952 18.1211 81.9952 18.4834C81.9952 18.8456 81.7016 19.1393 81.3391 19.1393H80.0275C79.665 19.1393 79.3714 18.8456 79.3714 18.4834Z" fill="black"/>
<path fill-rule="evenodd" clip-rule="evenodd" d="M16.4609 0.339966C25.1097 0.339966 32.1209 7.35119 32.1209 16C32.1209 24.6488 25.1097 31.66 16.4609 31.66C7.81212 31.66 0.800892 24.6488 0.800892 16C0.800892 7.35119 7.81212 0.339966 16.4609 0.339966ZM15.8949 1.5118C14.1084 1.76322 12.4072 3.19876 11.0867 5.59969C10.7037 6.29612 10.358 7.06552 10.0568 7.89627C11.8524 7.44505 13.8248 7.17902 15.8949 7.13787V1.5118ZM8.73331 8.27239C9.10782 7.09693 9.56603 6.01547 10.0948 5.05414C10.7494 3.86393 11.5263 2.83613 12.4016 2.04673C7.64181 3.42908 3.89 7.18088 2.50766 11.9407C3.29705 11.0653 4.32486 10.2885 5.51507 9.63387C6.4764 9.10511 7.55785 8.6469 8.73331 8.27239ZM8.35715 9.59589C7.90597 11.3915 7.63995 13.3639 7.5988 15.4339H1.97272C2.22415 13.6474 3.65969 11.9462 6.06062 10.6258C6.75705 10.2427 7.52645 9.89711 8.35715 9.59589ZM8.73112 15.4339C8.77786 13.1749 9.10304 11.0541 9.64112 9.1802C11.515 8.64212 13.6359 8.31686 15.8949 8.27012V10.7153C15.0521 12.8728 13.3333 14.5915 11.1757 15.4339H8.73112ZM7.5988 16.566H1.97272C2.22415 18.3526 3.65969 20.0536 6.06062 21.3742C6.75705 21.7572 7.52645 22.1028 8.35715 22.4041C7.90597 20.6085 7.63995 18.636 7.5988 16.566ZM9.64112 22.8198C9.10304 20.9459 8.77786 18.825 8.73112 16.566H11.1757C13.3333 17.4084 15.0522 19.1271 15.8949 21.2846V23.7298C13.6359 23.6831 11.515 23.3578 9.64112 22.8198ZM8.73331 23.7276C7.55785 23.3531 6.4764 22.8948 5.51507 22.3661C4.32486 21.7115 3.29705 20.9346 2.50766 20.0593C3.89 24.8191 7.64181 28.5709 12.4016 29.9532C11.5263 29.1638 10.7494 28.136 10.0948 26.9458C9.56603 25.9845 9.10782 24.903 8.73331 23.7276ZM15.8949 30.4881C14.1084 30.2367 12.4072 28.8012 11.0867 26.4003C10.7037 25.7039 10.358 24.9344 10.0568 24.1037C11.8524 24.5549 13.8248 24.8209 15.8949 24.8621V30.4881ZM20.5202 29.9532C21.3955 29.1638 22.1724 28.136 22.8271 26.9458C23.3558 25.9845 23.814 24.903 24.1885 23.7276C25.3639 23.3531 26.4454 22.8948 27.4068 22.3661C28.5969 21.7115 29.6248 20.9346 30.4141 20.0593C29.0318 24.8191 25.28 28.5709 20.5202 29.9532ZM22.865 24.1037C22.5638 24.9344 22.2181 25.7039 21.8351 26.4003C20.5146 28.8012 18.8135 30.2367 17.0269 30.4881V24.8621C19.0969 24.8209 21.0694 24.5549 22.865 24.1037ZM24.5646 22.4041C25.3953 22.1028 26.1648 21.7572 26.8612 21.3742C29.2621 20.0536 30.6976 18.3526 30.9491 16.566H25.323C25.2819 18.636 25.0158 20.6085 24.5646 22.4041ZM24.1908 16.566C24.144 18.825 23.8188 20.9459 23.2807 22.8198C21.4068 23.3578 19.286 23.6831 17.0269 23.7298V21.2864C17.8694 19.1281 19.5886 17.4087 21.7468 16.566H24.1908ZM25.323 15.4339H30.9491C30.6976 13.6474 29.2621 11.9462 26.8612 10.6258C26.1648 10.2427 25.3953 9.89711 24.5646 9.59589C25.0158 11.3915 25.2819 13.3639 25.323 15.4339ZM23.2807 9.1802C23.8188 11.0541 24.144 13.1749 24.1908 15.4339H21.7468C19.5886 14.5913 17.8694 12.8718 17.0269 10.7135V8.27012C19.286 8.31686 21.4068 8.64212 23.2807 9.1802ZM24.1885 8.27239C25.3639 8.6469 26.4454 9.10511 27.4068 9.63387C28.5969 10.2885 29.6248 11.0653 30.4141 11.9407C29.0318 7.18088 25.28 3.42908 20.5202 2.04673C21.3955 2.83613 22.1724 3.86393 22.8271 5.05414C23.3558 6.01547 23.814 7.09693 24.1885 8.27239ZM17.0269 1.5118C18.8135 1.76322 20.5146 3.19876 21.8351 5.59969C22.2181 6.29612 22.5638 7.06552 22.865 7.89627C21.0694 7.44505 19.0969 7.17902 17.0269 7.13787V1.5118Z" fill="black"/>
</g>
<defs>
<clipPath id="clip0_44_1730">
<rect width="82.215" height="31.32" fill="white" transform="translate(0.392475 0.339966)"/>
</clipPath>
</defs>
</svg>
