<svg width="111" height="26" viewBox="0 0 111 26" fill="none" xmlns="http://www.w3.org/2000/svg">
<g style="mix-blend-mode:luminosity" clip-path="url(#clip0_44_1723)">
<path fill-rule="evenodd" clip-rule="evenodd" d="M6.57777 1.625V26H0V1.625H6.57777Z" fill="#283841"/>
<path fill-rule="evenodd" clip-rule="evenodd" d="M9.86664 1.625H23.8444C28.3854 1.625 32.0666 5.26269 32.0666 9.75C32.0666 14.2373 28.3854 17.875 23.8444 17.875H16.4444V26H9.86664V1.625ZM16.4444 11.375H23.8444C24.7527 11.375 25.4889 10.6475 25.4889 9.75C25.4889 8.85254 24.7527 8.125 23.8444 8.125H16.4444V11.375Z" fill="#283841"/>
<path fill-rule="evenodd" clip-rule="evenodd" d="M56.7333 1.625V14.2188C56.7333 17.1355 59.1261 19.5 62.0778 19.5C65.0294 19.5 67.4223 17.1355 67.4223 14.2188V1.625H74.0002V14.2188C74.0002 20.7254 68.6624 26 62.0778 26C55.4933 26 50.1556 20.7254 50.1556 14.2188V1.625H56.7333Z" fill="#283841"/>
<path fill-rule="evenodd" clip-rule="evenodd" d="M34.5333 13C34.5333 6.71775 39.687 1.625 46.0444 1.625H47.6889V8.125H46.0444C43.3198 8.125 41.1111 10.3076 41.1111 13V13.8125C41.1111 20.5434 35.5893 26 28.7778 26H27.9556V19.5H28.7778C31.9565 19.5 34.5333 16.9536 34.5333 13.8125V13Z" fill="#283841"/>
<path d="M111 2.4375C111 3.7837 109.896 4.875 108.533 4.875C107.171 4.875 106.067 3.7837 106.067 2.4375C106.067 1.0913 107.171 0 108.533 0C109.896 0 111 1.0913 111 2.4375Z" fill="#283841"/>
<path d="M81.0628 25.9999L84.2017 13.0117L86.5353 20.8255C87.9265 25.4859 94.6068 25.4859 95.9986 20.8255L98.3316 13.0117L101.47 25.9999H108.233L103.298 5.57662C102.124 0.719785 95.1979 0.539957 93.7674 5.32924L91.267 13.7041L88.7659 5.32925C87.336 0.539985 80.4093 0.719759 79.2356 5.57661L74.3004 25.9999H81.0628Z" fill="#283841"/>
</g>
<defs>
<clipPath id="clip0_44_1723">
<rect width="111" height="26" fill="white"/>
</clipPath>
</defs>
</svg>
