<svg width="24" height="25" viewBox="0 0 24 25" fill="none" xmlns="http://www.w3.org/2000/svg">
<path d="M5.14286 4.5C4.51071 4.5 4 5.01071 4 5.64286V9.07143C4 9.70357 4.51071 10.2143 5.14286 10.2143C5.775 10.2143 6.28571 9.70357 6.28571 9.07143V6.78571H8.57143C9.20357 6.78571 9.71429 6.275 9.71429 5.64286C9.71429 5.01071 9.20357 4.5 8.57143 4.5H5.14286ZM6.28571 15.9286C6.28571 15.2964 5.775 14.7857 5.14286 14.7857C4.51071 14.7857 4 15.2964 4 15.9286V19.3571C4 19.9893 4.51071 20.5 5.14286 20.5H8.57143C9.20357 20.5 9.71429 19.9893 9.71429 19.3571C9.71429 18.725 9.20357 18.2143 8.57143 18.2143H6.28571V15.9286ZM15.4286 4.5C14.7964 4.5 14.2857 5.01071 14.2857 5.64286C14.2857 6.275 14.7964 6.78571 15.4286 6.78571H17.7143V9.07143C17.7143 9.70357 18.225 10.2143 18.8571 10.2143C19.4893 10.2143 20 9.70357 20 9.07143V5.64286C20 5.01071 19.4893 4.5 18.8571 4.5H15.4286ZM20 15.9286C20 15.2964 19.4893 14.7857 18.8571 14.7857C18.225 14.7857 17.7143 15.2964 17.7143 15.9286V18.2143H15.4286C14.7964 18.2143 14.2857 18.725 14.2857 19.3571C14.2857 19.9893 14.7964 20.5 15.4286 20.5H18.8571C19.4893 20.5 20 19.9893 20 19.3571V15.9286Z" fill="#C81C1C"/>
</svg>
