<svg width="24" height="25" viewBox="0 0 24 25" fill="none" xmlns="http://www.w3.org/2000/svg">
<path d="M7 6.91563C7 6.6875 7.18438 6.5 7.41563 6.5C7.525 6.5 7.63125 6.54375 7.70937 6.62188L8.175 7.0875C8.0625 7.36875 8 7.67812 8 8C8 8.62187 8.225 9.1875 8.6 9.625C8.43437 9.9125 8.475 10.2844 8.71875 10.5312C9.0125 10.825 9.4875 10.825 9.77812 10.5312L13.0312 7.28125C13.325 6.9875 13.325 6.5125 13.0312 6.22187C12.7844 5.975 12.4125 5.9375 12.125 6.10312C11.6875 5.725 11.1219 5.5 10.5 5.5C10.1781 5.5 9.86875 5.5625 9.5875 5.67188L9.12187 5.20625C8.66875 4.75313 8.05312 4.5 7.41563 4.5C6.08125 4.5 5 5.58125 5 6.91563V12.5C4.44687 12.5 4 12.9469 4 13.5C4 14.0531 4.44687 14.5 5 14.5H19C19.5531 14.5 20 14.0531 20 13.5C20 12.9469 19.5531 12.5 19 12.5H7V6.91563ZM5 15.5V16C5 16.8875 5.3875 17.6875 6 18.2375V19.5C6 20.0531 6.44688 20.5 7 20.5C7.55312 20.5 8 20.0531 8 19.5V19H16V19.5C16 20.0531 16.4469 20.5 17 20.5C17.5531 20.5 18 20.0531 18 19.5V18.2375C18.6125 17.6875 19 16.8906 19 16V15.5H5Z" fill="#C81C1C"/>
</svg>
