<svg width="30" height="30" viewBox="0 0 30 30" fill="none" xmlns="http://www.w3.org/2000/svg">
<rect width="30" height="30" rx="15" fill="#FF0000"/>
<path d="M8.14286 21.5C8.14286 21.8978 8.32347 22.2794 8.64496 22.5607C8.96645 22.842 9.40249 23 9.85714 23H20.1429C20.5975 23 21.0336 22.842 21.355 22.5607C21.6765 22.2794 21.8571 21.8978 21.8571 21.5V11H8.14286V21.5ZM17.8571 13.5C17.8571 13.3674 17.9173 13.2402 18.0245 13.1465C18.1317 13.0527 18.277 13 18.4286 13C18.5801 13 18.7255 13.0527 18.8326 13.1465C18.9398 13.2402 19 13.3674 19 13.5V20.5C19 20.6326 18.9398 20.7598 18.8326 20.8536C18.7255 20.9473 18.5801 21 18.4286 21C18.277 21 18.1317 20.9473 18.0245 20.8536C17.9173 20.7598 17.8571 20.6326 17.8571 20.5V13.5ZM14.4286 13.5C14.4286 13.3674 14.4888 13.2402 14.5959 13.1465C14.7031 13.0527 14.8484 13 15 13C15.1516 13 15.2969 13.0527 15.4041 13.1465C15.5112 13.2402 15.5714 13.3674 15.5714 13.5V20.5C15.5714 20.6326 15.5112 20.7598 15.4041 20.8536C15.2969 20.9473 15.1516 21 15 21C14.8484 21 14.7031 20.9473 14.5959 20.8536C14.4888 20.7598 14.4286 20.6326 14.4286 20.5V13.5ZM11 13.5C11 13.3674 11.0602 13.2402 11.1674 13.1465C11.2745 13.0527 11.4199 13 11.5714 13C11.723 13 11.8683 13.0527 11.9755 13.1465C12.0827 13.2402 12.1429 13.3674 12.1429 13.5V20.5C12.1429 20.6326 12.0827 20.7598 11.9755 20.8536C11.8683 20.9473 11.723 21 11.5714 21C11.4199 21 11.2745 20.9473 11.1674 20.8536C11.0602 20.7598 11 20.6326 11 20.5V13.5ZM22.4286 8.00001H18.1429L17.8071 7.41563C17.736 7.2907 17.6265 7.18561 17.4908 7.11218C17.3552 7.03875 17.1988 6.99991 17.0393 7.00001H12.9571C12.798 6.99947 12.6419 7.03817 12.5067 7.11168C12.3715 7.18519 12.2628 7.29053 12.1929 7.41563L11.8571 8.00001H7.57143C7.41988 8.00001 7.27453 8.05268 7.16737 8.14645C7.0602 8.24022 7 8.3674 7 8.50001V9.50001C7 9.63261 7.0602 9.75979 7.16737 9.85356C7.27453 9.94733 7.41988 10 7.57143 10H22.4286C22.5801 10 22.7255 9.94733 22.8326 9.85356C22.9398 9.75979 23 9.63261 23 9.50001V8.50001C23 8.3674 22.9398 8.24022 22.8326 8.14645C22.7255 8.05268 22.5801 8.00001 22.4286 8.00001Z" fill="white"/>
</svg>
