<svg width="24" height="25" viewBox="0 0 24 25" fill="none" xmlns="http://www.w3.org/2000/svg">
<path d="M4.8 6.9C5.2425 6.9 5.6 7.2575 5.6 7.7V14.1H11.2V10.1C11.2 9.6575 11.5575 9.3 12 9.3H17.6C18.925 9.3 20 10.375 20 11.7V17.3C20 17.7425 19.6425 18.1 19.2 18.1C18.7575 18.1 18.4 17.7425 18.4 17.3V16.5H12.8H12H5.6V17.3C5.6 17.7425 5.2425 18.1 4.8 18.1C4.3575 18.1 4 17.7425 4 17.3V7.7C4 7.2575 4.3575 6.9 4.8 6.9ZM8.4 9.3C8.93043 9.3 9.43914 9.51072 9.81421 9.88579C10.1893 10.2609 10.4 10.7696 10.4 11.3C10.4 11.8304 10.1893 12.3391 9.81421 12.7142C9.43914 13.0893 8.93043 13.3 8.4 13.3C7.86957 13.3 7.36086 13.0893 6.98579 12.7142C6.61071 12.3391 6.4 11.8304 6.4 11.3C6.4 10.7696 6.61071 10.2609 6.98579 9.88579C7.36086 9.51072 7.86957 9.3 8.4 9.3Z" fill="#C81C1C"/>
</svg>
