<svg width="16" height="16" viewBox="0 0 16 16" fill="none" xmlns="http://www.w3.org/2000/svg">
<path d="M16 14.2222V1.77778C16 0.8 15.2 0 14.2222 0H1.77778C0.8 0 0 0.8 0 1.77778V14.2222C0 15.2 0.8 16 1.77778 16H14.2222C15.2 16 16 15.2 16 14.2222ZM5.24444 9.76L7.11111 12.0089L9.86667 8.46222C10.0444 8.23111 10.4 8.23111 10.5778 8.47111L13.6978 12.6311C13.92 12.9244 13.7067 13.3422 13.3422 13.3422H2.68444C2.31111 13.3422 2.10667 12.9156 2.33778 12.6222L4.55111 9.77778C4.72 9.54667 5.05778 9.53778 5.24444 9.76Z" fill="black"/>
</svg>
