<svg width="48" height="59" viewBox="0 0 48 59" fill="none" xmlns="http://www.w3.org/2000/svg">
<path d="M0.398812 29.454C0.398812 22.6386 0.380392 15.8233 0.398812 9.00798C0.417231 5.10298 2.36973 2.41368 5.7774 0.71906C6.95627 0.129626 8.24565 0.0191069 9.55346 0.0375267C15.7978 0.0559465 22.0237 0.0375267 28.268 0.0375267C28.7285 0.0375267 29.189 0.0191069 29.6495 0.000687046C30.7731 -0.0177328 31.7125 0.332244 32.394 1.29007C32.5598 1.52953 32.7808 1.75057 32.9835 1.95319C37.2016 6.17133 41.3276 10.4631 45.6747 14.5523C47.1667 15.9522 47.6272 17.3706 47.6088 19.3231C47.5351 29.4356 47.5167 39.5296 47.5904 49.6421C47.6272 54.7996 44.2564 57.8021 39.983 58.852C39.4857 58.9809 38.9331 58.9625 38.3989 58.9625C28.7469 58.9625 19.1133 58.8888 9.46136 58.9994C5.00377 59.0546 1.1356 55.5364 0.56459 51.8156C0.454071 51.1157 0.398812 50.3973 0.398812 49.6789C0.398812 42.9373 0.398812 36.1956 0.398812 29.454ZM26.9233 5.91345C26.6102 5.91345 26.4076 5.91345 26.205 5.91345C20.6606 5.91345 15.1162 5.91345 9.55346 5.91345C7.50886 5.91345 6.31157 7.14758 6.31157 9.19218C6.31157 22.7307 6.31157 36.2693 6.31157 49.8079C6.31157 51.8709 7.50886 53.0866 9.55346 53.0866C19.1686 53.0866 28.8022 53.0866 38.4173 53.0866C40.4619 53.0866 41.6592 51.8525 41.6592 49.8079C41.6592 40.3401 41.6592 30.8907 41.6592 21.4229C41.6592 21.1835 41.6592 20.944 41.6592 20.6677C41.3092 20.6677 41.0513 20.6677 40.8119 20.6677C38.141 20.6677 35.4701 20.6861 32.7993 20.6677C29.8889 20.6309 27.2733 18.3652 27.0154 15.4733C26.8312 13.3735 26.9418 11.2368 26.9233 9.1185C26.9233 8.06857 26.9233 7.03706 26.9233 5.91345ZM32.873 10.2237C32.873 11.7341 32.873 13.2077 32.873 14.6997C34.3834 14.6997 35.8754 14.6997 37.3121 14.6997C35.8385 13.2077 34.365 11.7341 32.873 10.2237Z" fill="#808080"/>
<path d="M23.9761 39.4927C22.6499 40.819 21.4158 42.0899 20.1632 43.3241C19.3527 44.1345 18.3581 44.4477 17.2529 44.0793C16.1661 43.7293 15.4661 42.9557 15.2083 41.8505C14.9688 40.8005 15.3372 39.898 16.0924 39.1612C17.1792 38.0744 18.266 36.9876 19.3527 35.8825C19.5185 35.7167 19.6659 35.5509 19.8501 35.3667C18.5975 34.1142 17.3818 32.8984 16.1661 31.6827C14.8583 30.3565 14.7846 28.6803 16.0003 27.4646C17.2345 26.2121 18.9475 26.2489 20.2921 27.5567C21.5078 28.7724 22.7236 29.9881 23.9761 31.2775C25.2471 30.0065 26.4259 28.7356 27.6969 27.5751C28.1942 27.1146 28.8758 26.7278 29.5389 26.5989C30.773 26.341 31.9703 27.0778 32.5413 28.2198C33.0755 29.3066 32.9097 30.5407 32.0071 31.4617C30.7362 32.7695 29.4284 34.0221 28.0837 35.3483C29.3731 36.6377 30.6257 37.8534 31.8414 39.1059C33.0939 40.3953 33.1492 41.9978 32.0071 43.2504C30.8651 44.5029 29.0784 44.5766 27.8443 43.3609C26.5733 42.1084 25.3208 40.8374 23.9761 39.4927Z" fill="#808080"/>
</svg>
