<svg width="24" height="23" viewBox="0 0 24 23" fill="none" xmlns="http://www.w3.org/2000/svg">
<path d="M8.225 7.16875L7.40937 9.5H16.5906L15.775 7.16875C15.6344 6.76875 15.2563 6.5 14.8313 6.5H9.16875C8.74375 6.5 8.36562 6.76875 8.225 7.16875ZM5.2375 9.65L6.3375 6.50938C6.75938 5.30625 7.89375 4.5 9.16875 4.5H14.8313C16.1062 4.5 17.2406 5.30625 17.6625 6.50938L18.7625 9.65C19.4875 9.95 20 10.6656 20 11.5V16V17.5C20 18.0531 19.5531 18.5 19 18.5H18C17.4469 18.5 17 18.0531 17 17.5V16H7V17.5C7 18.0531 6.55312 18.5 6 18.5H5C4.44687 18.5 4 18.0531 4 17.5V16V11.5C4 10.6656 4.5125 9.95 5.2375 9.65ZM8 12.5C8 12.2348 7.89464 11.9804 7.70711 11.7929C7.51957 11.6054 7.26522 11.5 7 11.5C6.73478 11.5 6.48043 11.6054 6.29289 11.7929C6.10536 11.9804 6 12.2348 6 12.5C6 12.7652 6.10536 13.0196 6.29289 13.2071C6.48043 13.3946 6.73478 13.5 7 13.5C7.26522 13.5 7.51957 13.3946 7.70711 13.2071C7.89464 13.0196 8 12.7652 8 12.5ZM17 13.5C17.2652 13.5 17.5196 13.3946 17.7071 13.2071C17.8946 13.0196 18 12.7652 18 12.5C18 12.2348 17.8946 11.9804 17.7071 11.7929C17.5196 11.6054 17.2652 11.5 17 11.5C16.7348 11.5 16.4804 11.6054 16.2929 11.7929C16.1054 11.9804 16 12.2348 16 12.5C16 12.7652 16.1054 13.0196 16.2929 13.2071C16.4804 13.3946 16.7348 13.5 17 13.5Z" fill="#C81C1C"/>
</svg>
