<svg width="30" height="30" viewBox="0 0 30 30" fill="none" xmlns="http://www.w3.org/2000/svg">
<path d="M12.5 9.375C12.5 7.99609 13.6211 6.875 15 6.875C16.3789 6.875 17.5 7.99609 17.5 9.375V11.25H12.5V9.375ZM10.625 11.25H8.125C7.08984 11.25 6.25 12.0898 6.25 13.125V21.25C6.25 23.3203 7.92969 25 10 25H20C22.0703 25 23.75 23.3203 23.75 21.25V13.125C23.75 12.0898 22.9102 11.25 21.875 11.25H19.375V9.375C19.375 6.95703 17.418 5 15 5C12.582 5 10.625 6.95703 10.625 9.375V11.25ZM11.5625 13.125C11.8111 13.125 12.0496 13.2238 12.2254 13.3996C12.4012 13.5754 12.5 13.8139 12.5 14.0625C12.5 14.3111 12.4012 14.5496 12.2254 14.7254C12.0496 14.9012 11.8111 15 11.5625 15C11.3139 15 11.0754 14.9012 10.8996 14.7254C10.7238 14.5496 10.625 14.3111 10.625 14.0625C10.625 13.8139 10.7238 13.5754 10.8996 13.3996C11.0754 13.2238 11.3139 13.125 11.5625 13.125ZM17.5 14.0625C17.5 13.8139 17.5988 13.5754 17.7746 13.3996C17.9504 13.2238 18.1889 13.125 18.4375 13.125C18.6861 13.125 18.9246 13.2238 19.1004 13.3996C19.2762 13.5754 19.375 13.8139 19.375 14.0625C19.375 14.3111 19.2762 14.5496 19.1004 14.7254C18.9246 14.9012 18.6861 15 18.4375 15C18.1889 15 17.9504 14.9012 17.7746 14.7254C17.5988 14.5496 17.5 14.3111 17.5 14.0625Z" fill="black"/>
</svg>
