<svg width="16" height="22" viewBox="0 0 16 22" fill="none" xmlns="http://www.w3.org/2000/svg">
<path d="M16 11C16 15.4183 12.4183 19 8 19C3.58171 19 0 15.4183 0 11C0 6.58171 3.58171 3 8 3C12.4183 3 16 6.58171 16 11ZM7.07464 15.2359L13.0101 9.30045C13.2117 9.0989 13.2117 8.7721 13.0101 8.57055L12.2802 7.84064C12.0787 7.63906 11.7519 7.63906 11.5503 7.84064L6.70968 12.6812L4.44971 10.4213C4.24816 10.2197 3.92135 10.2197 3.71977 10.4213L2.98987 11.1512C2.78832 11.3527 2.78832 11.6795 2.98987 11.8811L6.34471 15.2359C6.54629 15.4375 6.87306 15.4375 7.07464 15.2359Z" fill="#C81C1C"/>
</svg>
