<svg width="30" height="30" viewBox="0 0 30 30" fill="none" xmlns="http://www.w3.org/2000/svg">
<path d="M15.6875 5.30078C15.5078 5.10937 15.2617 5 15 5C14.7382 5 14.4921 5.10937 14.3125 5.30078L10.25 9.67578C9.99605 9.94922 9.92965 10.3477 10.0781 10.6875C10.2265 11.0273 10.5664 11.25 10.9375 11.25H13.125V18.75H10.9375C10.5664 18.75 10.2265 18.9727 10.0781 19.3125C9.92965 19.6523 9.99605 20.0508 10.25 20.3242L14.3125 24.6992C14.4882 24.8906 14.7382 25 15 25C15.2617 25 15.5078 24.8906 15.6875 24.6992L19.75 20.3242C20.0039 20.0508 20.0703 19.6523 19.9218 19.3125C19.7734 18.9727 19.4336 18.75 19.0625 18.75H16.875V11.25H19.0625C19.4336 11.25 19.7734 11.0273 19.9218 10.6875C20.0703 10.3477 20.0039 9.94922 19.75 9.67578L15.6875 5.30078Z" fill="black"/>
</svg>
