<svg width="30" height="30" viewBox="0 0 30 30" fill="none" xmlns="http://www.w3.org/2000/svg">
<path d="M15.1062 9.66305L12.0813 12.113C11.5781 12.5193 11.4813 13.2505 11.8625 13.7724C12.2656 14.3287 13.05 14.438 13.5906 14.0162L16.6938 11.6037C16.9125 11.4349 17.225 11.4724 17.3969 11.6912C17.5688 11.9099 17.5281 12.2224 17.3094 12.3943L16.6562 12.9005L21 16.9005V11.0005H20.9781L20.8562 10.9224L18.5875 9.4693C18.1094 9.16305 17.55 9.00055 16.9812 9.00055C16.3 9.00055 15.6375 9.23492 15.1062 9.66305ZM15.8188 13.5505L14.2031 14.8068C13.2188 15.5755 11.7906 15.3755 11.0531 14.363C10.3594 13.4099 10.5344 12.0787 11.45 11.338L14.05 9.23492C13.6875 9.0818 13.2969 9.00367 12.9 9.00367C12.3125 9.00055 11.7406 9.17555 11.25 9.50055L9 11.0005V18.0005H9.88125L12.7375 20.6068C13.35 21.1662 14.2969 21.1224 14.8562 20.5099C15.0281 20.3193 15.1438 20.0974 15.2031 19.8662L15.7344 20.3537C16.3438 20.913 17.2937 20.8724 17.8531 20.263C17.9937 20.1099 18.0969 19.9318 18.1625 19.7474C18.7688 20.1537 19.5938 20.0693 20.1031 19.513C20.6625 18.9037 20.6219 17.9537 20.0125 17.3943L15.8188 13.5505ZM5.5 11.0005C5.225 11.0005 5 11.2255 5 11.5005V18.0005C5 18.5537 5.44687 19.0005 6 19.0005H7C7.55312 19.0005 8 18.5537 8 18.0005V11.0005H5.5ZM6.5 17.0005C6.63261 17.0005 6.75979 17.0532 6.85355 17.147C6.94732 17.2408 7 17.3679 7 17.5005C7 17.6332 6.94732 17.7603 6.85355 17.8541C6.75979 17.9479 6.63261 18.0005 6.5 18.0005C6.36739 18.0005 6.24021 17.9479 6.14645 17.8541C6.05268 17.7603 6 17.6332 6 17.5005C6 17.3679 6.05268 17.2408 6.14645 17.147C6.24021 17.0532 6.36739 17.0005 6.5 17.0005ZM22 11.0005V18.0005C22 18.5537 22.4469 19.0005 23 19.0005H24C24.5531 19.0005 25 18.5537 25 18.0005V11.5005C25 11.2255 24.775 11.0005 24.5 11.0005H22ZM23 17.5005C23 17.3679 23.0527 17.2408 23.1464 17.147C23.2402 17.0532 23.3674 17.0005 23.5 17.0005C23.6326 17.0005 23.7598 17.0532 23.8536 17.147C23.9473 17.2408 24 17.3679 24 17.5005C24 17.6332 23.9473 17.7603 23.8536 17.8541C23.7598 17.9479 23.6326 18.0005 23.5 18.0005C23.3674 18.0005 23.2402 17.9479 23.1464 17.8541C23.0527 17.7603 23 17.6332 23 17.5005Z" fill="black"/>
</svg>
