<svg width="40" height="40" viewBox="0 0 40 40" fill="none" xmlns="http://www.w3.org/2000/svg">
<g opacity="0.6">
<rect width="40" height="40" rx="4" fill="white"/>
<path d="M24.125 8H30.875C31.4984 8 32 8.50156 32 9.125V15.875C32 16.3297 31.7281 16.7422 31.3063 16.9156C30.8844 17.0891 30.4016 16.9953 30.0781 16.6719L28.25 14.8438L24.1719 18.9219C23.7312 19.3625 23.0188 19.3625 22.5828 18.9219L21.0828 17.4219C20.6422 16.9812 20.6422 16.2688 21.0828 15.8328L25.1609 11.7547L23.3281 9.92188C23.0047 9.59844 22.9109 9.11563 23.0844 8.69375C23.2578 8.27188 23.6703 8 24.125 8ZM15.875 32H9.125C8.50156 32 8 31.4984 8 30.875V24.125C8 23.6703 8.27188 23.2578 8.69375 23.0844C9.11563 22.9109 9.59844 23.0047 9.92188 23.3281L11.75 25.1562L15.8281 21.0781C16.2688 20.6375 16.9812 20.6375 17.4172 21.0781L18.9172 22.5781C19.3578 23.0188 19.3578 23.7312 18.9172 24.1672L14.8391 28.2453L16.6672 30.0734C16.9906 30.3969 17.0844 30.8797 16.9109 31.3016C16.7375 31.7234 16.325 31.9953 15.8703 31.9953L15.875 32Z" fill="black"/>
</g>
</svg>
