<svg width="36" height="36" viewBox="0 0 36 36" fill="none" xmlns="http://www.w3.org/2000/svg">
<rect x="35.5" y="35.5" width="35" height="35" rx="17.5" transform="rotate(-180 35.5 35.5)" fill="white"/>
<rect x="35.5" y="35.5" width="35" height="35" rx="17.5" transform="rotate(-180 35.5 35.5)" stroke="#EFF5F4"/>
<path d="M10.3348 17.1928C9.88839 17.6393 9.88839 18.3643 10.3348 18.8108L16.0494 24.5254C16.4959 24.9718 17.2209 24.9718 17.6674 24.5254C18.1138 24.0789 18.1138 23.3539 17.6674 22.9074L13.8993 19.1429L24.8571 19.1429C25.4893 19.1429 26 18.6322 26 18C26 17.3678 25.4893 16.8571 24.8571 16.8571L13.9029 16.8571L17.6638 13.0926C18.1103 12.6461 18.1103 11.9211 17.6638 11.4746C17.2174 11.0282 16.4923 11.0282 16.0459 11.4746L10.3313 17.1892L10.3348 17.1928Z" fill="black"/>
</svg>
