<svg width="30" height="30" viewBox="0 0 30 30" fill="none" xmlns="http://www.w3.org/2000/svg">
<path d="M8 9C8 8.44687 8.44688 8 9 8H10C10.5531 8 11 8.44687 11 9V14V16V21C11 21.5531 10.5531 22 10 22H9C8.44688 22 8 21.5531 8 21V19H7C6.44687 19 6 18.5531 6 18V16C5.44687 16 5 15.5531 5 15C5 14.4469 5.44687 14 6 14V12C6 11.4469 6.44687 11 7 11H8V9ZM22 9V11H23C23.5531 11 24 11.4469 24 12V14C24.5531 14 25 14.4469 25 15C25 15.5531 24.5531 16 24 16V18C24 18.5531 23.5531 19 23 19H22V21C22 21.5531 21.5531 22 21 22H20C19.4469 22 19 21.5531 19 21V16V14V9C19 8.44687 19.4469 8 20 8H21C21.5531 8 22 8.44687 22 9ZM18 14V16H12V14H18Z" fill="black"/>
</svg>
