<svg width="30" height="30" viewBox="0 0 30 30" fill="none" xmlns="http://www.w3.org/2000/svg">
<path d="M11 8.50765C11 7.68049 11.6719 7.0094 12.5 7.0094H17.5C18.3281 7.0094 19 7.68049 19 8.50765V22.9907H16.5V20.4936C16.5 19.6665 15.8281 18.9954 15 18.9954C14.1719 18.9954 13.5 19.6665 13.5 20.4936V22.9907H11V8.50765ZM6.5 10.0059H10V22.9907H6.5C5.67188 22.9907 5 22.3196 5 21.4925V16.9977H7.5C7.775 16.9977 8 16.773 8 16.4983C8 16.2236 7.775 15.9989 7.5 15.9989H5V14.0012H7.5C7.775 14.0012 8 13.7765 8 13.5018C8 13.2271 7.775 13.0024 7.5 13.0024H5V11.5041C5 10.677 5.67188 10.0059 6.5 10.0059ZM23.5 10.0059C24.3281 10.0059 25 10.677 25 11.5041V13.0024H22.5C22.225 13.0024 22 13.2271 22 13.5018C22 13.7765 22.225 14.0012 22.5 14.0012H25V15.9989H22.5C22.225 15.9989 22 16.2236 22 16.4983C22 16.773 22.225 16.9977 22.5 16.9977H25V21.4925C25 22.3196 24.3281 22.9907 23.5 22.9907H20V10.0059H23.5ZM14.75 9.00706C14.475 9.00706 14.25 9.2318 14.25 9.50648V10.2556H13.5C13.225 10.2556 13 10.4803 13 10.755V11.2544C13 11.5291 13.225 11.7538 13.5 11.7538H14.25V12.503C14.25 12.7777 14.475 13.0024 14.75 13.0024H15.25C15.525 13.0024 15.75 12.7777 15.75 12.503V11.7538H16.5C16.775 11.7538 17 11.5291 17 11.2544V10.755C17 10.4803 16.775 10.2556 16.5 10.2556H15.75V9.50648C15.75 9.2318 15.525 9.00706 15.25 9.00706H14.75Z" fill="black"/>
</svg>
