<svg width="30" height="30" viewBox="0 0 30 30" fill="none" xmlns="http://www.w3.org/2000/svg">
<path d="M15.5562 7.17938C15.2188 6.95469 14.7812 6.95469 14.4438 7.17938L10.1969 10.0068H6.5C5.67188 10.0068 5 10.6778 5 11.5048V21.4912C5 22.3182 5.67188 22.9891 6.5 22.9891H13V19.9932C13 18.8916 13.8969 17.9959 15 17.9959C16.1031 17.9959 17 18.8916 17 19.9932V22.9891H23.5C24.3281 22.9891 25 22.3182 25 21.4912V11.5048C25 10.6778 24.3281 10.0068 23.5 10.0068H19.8031L15.5562 7.17938ZM8 13.0027H9C9.275 13.0027 9.5 13.2274 9.5 13.502V15.4993C9.5 15.7739 9.275 15.9986 9 15.9986H8C7.725 15.9986 7.5 15.7739 7.5 15.4993V13.502C7.5 13.2274 7.725 13.0027 8 13.0027ZM20.5 13.502C20.5 13.2274 20.725 13.0027 21 13.0027H22C22.275 13.0027 22.5 13.2274 22.5 13.502V15.4993C22.5 15.7739 22.275 15.9986 22 15.9986H21C20.725 15.9986 20.5 15.7739 20.5 15.4993V13.502ZM8 16.9973H9C9.275 16.9973 9.5 17.222 9.5 17.4966V19.4939C9.5 19.7685 9.275 19.9932 9 19.9932H8C7.725 19.9932 7.5 19.7685 7.5 19.4939V17.4966C7.5 17.222 7.725 16.9973 8 16.9973ZM20.5 17.4966C20.5 17.222 20.725 16.9973 21 16.9973H22C22.275 16.9973 22.5 17.222 22.5 17.4966V19.4939C22.5 19.7685 22.275 19.9932 22 19.9932H21C20.725 19.9932 20.5 19.7685 20.5 19.4939V17.4966ZM12.25 12.5034C12.25 11.775 12.5397 11.0765 13.0555 10.5615C13.5712 10.0465 14.2707 9.75713 15 9.75713C15.7293 9.75713 16.4288 10.0465 16.9445 10.5615C17.4603 11.0765 17.75 11.775 17.75 12.5034C17.75 13.2317 17.4603 13.9303 16.9445 14.4453C16.4288 14.9603 15.7293 15.2497 15 15.2497C14.2707 15.2497 13.5712 14.9603 13.0555 14.4453C12.5397 13.9303 12.25 13.2317 12.25 12.5034ZM15 11.0054C14.725 11.0054 14.5 11.2301 14.5 11.5048V12.5034C14.5 12.778 14.725 13.0027 15 13.0027H16C16.275 13.0027 16.5 12.778 16.5 12.5034C16.5 12.2288 16.275 12.0041 16 12.0041H15.5V11.5048C15.5 11.2301 15.275 11.0054 15 11.0054Z" fill="black"/>
</svg>
