<svg width="30" height="30" viewBox="0 0 30 30" fill="none" xmlns="http://www.w3.org/2000/svg">
<path d="M13.125 8.75C13.6223 8.75 14.0992 8.55246 14.4508 8.20083C14.8025 7.84919 15 7.37228 15 6.875C15 6.37772 14.8025 5.90081 14.4508 5.54917C14.0992 5.19754 13.6223 5 13.125 5C12.6277 5 12.1508 5.19754 11.7992 5.54917C11.4475 5.90081 11.25 6.37772 11.25 6.875C11.25 7.37228 11.4475 7.84919 11.7992 8.20083C12.1508 8.55246 12.6277 8.75 13.125 8.75ZM17.5 15C18.163 15 18.7989 14.7366 19.2678 14.2678C19.7366 13.7989 20 13.163 20 12.5C20 11.837 19.7366 11.2011 19.2678 10.7322C18.7989 10.2634 18.163 10 17.5 10C16.837 10 16.2011 10.2634 15.7322 10.7322C15.2634 11.2011 15 11.837 15 12.5C15 13.163 15.2634 13.7989 15.7322 14.2678C16.2011 14.7366 16.837 15 17.5 15ZM21.25 6.25C21.25 5.91848 21.1183 5.60054 20.8839 5.36612C20.6495 5.1317 20.3315 5 20 5C19.6685 5 19.3505 5.1317 19.1161 5.36612C18.8817 5.60054 18.75 5.91848 18.75 6.25C18.75 6.58152 18.8817 6.89946 19.1161 7.13388C19.3505 7.3683 19.6685 7.5 20 7.5C20.3315 7.5 20.6495 7.3683 20.8839 7.13388C21.1183 6.89946 21.25 6.58152 21.25 6.25ZM21.25 12.5C21.25 13.5781 20.793 14.5508 20.0625 15.2383C21.4883 15.7695 22.5 17.1406 22.5 18.75C22.5 20.8203 20.8203 22.5 18.75 22.5H11.25C9.17969 22.5 7.5 20.8203 7.5 18.75C7.5 16.6797 9.17969 15 11.25 15H14.7031C14.1094 14.3359 13.75 13.4609 13.75 12.5H8.75C6.67969 12.5 5 14.1797 5 16.25V21.25C5 23.3203 6.67969 25 8.75 25H21.25C23.3203 25 25 23.3203 25 21.25V16.25C25 14.1797 23.3203 12.5 21.25 12.5ZM11.25 16.25C9.87109 16.25 8.75 17.3711 8.75 18.75C8.75 20.1289 9.87109 21.25 11.25 21.25H18.75C20.1289 21.25 21.25 20.1289 21.25 18.75C21.25 17.3711 20.1289 16.25 18.75 16.25H17.5H11.25Z" fill="black"/>
</svg>
