<svg width="16" height="16" viewBox="0 0 16 16" fill="none" xmlns="http://www.w3.org/2000/svg">
<path d="M15.7824 13.8339L12.6666 10.7181C12.5259 10.5774 12.3353 10.4993 12.1353 10.4993H11.6259C12.4884 9.3961 13.001 8.0085 13.001 6.49901C13.001 2.90812 10.0914 -0.00146484 6.50048 -0.00146484C2.90959 -0.00146484 0 2.90812 0 6.49901C0 10.0899 2.90959 12.9995 6.50048 12.9995C8.00996 12.9995 9.39756 12.4869 10.5008 11.6244V12.1338C10.5008 12.3338 10.5789 12.5245 10.7195 12.6651L13.8354 15.7809C14.1292 16.0747 14.6042 16.0747 14.8948 15.7809L15.7793 14.8965C16.0731 14.6027 16.0731 14.1277 15.7824 13.8339ZM6.50048 10.4993C4.29094 10.4993 2.50018 8.71167 2.50018 6.49901C2.50018 4.28947 4.28781 2.49872 6.50048 2.49872C8.71001 2.49872 10.5008 4.28635 10.5008 6.49901C10.5008 8.70855 8.71314 10.4993 6.50048 10.4993Z" fill="black"/>
</svg>
