<svg width="30" height="30" viewBox="0 0 30 30" fill="none" xmlns="http://www.w3.org/2000/svg">
<path d="M10.2812 9.58594L9.26172 12.5H20.7383L19.7188 9.58594C19.543 9.08594 19.0703 8.75 18.5391 8.75H11.4609C10.9297 8.75 10.457 9.08594 10.2812 9.58594ZM6.54688 12.6875L7.92188 8.76172C8.44922 7.25781 9.86719 6.25 11.4609 6.25H18.5391C20.1328 6.25 21.5508 7.25781 22.0781 8.76172L23.4531 12.6875C24.3594 13.0625 25 13.957 25 15V20.625V22.5C25 23.1914 24.4414 23.75 23.75 23.75H22.5C21.8086 23.75 21.25 23.1914 21.25 22.5V20.625H8.75V22.5C8.75 23.1914 8.19141 23.75 7.5 23.75H6.25C5.55859 23.75 5 23.1914 5 22.5V20.625V15C5 13.957 5.64062 13.0625 6.54688 12.6875ZM10 16.25C10 15.9185 9.8683 15.6005 9.63388 15.3661C9.39946 15.1317 9.08152 15 8.75 15C8.41848 15 8.10054 15.1317 7.86612 15.3661C7.6317 15.6005 7.5 15.9185 7.5 16.25C7.5 16.5815 7.6317 16.8995 7.86612 17.1339C8.10054 17.3683 8.41848 17.5 8.75 17.5C9.08152 17.5 9.39946 17.3683 9.63388 17.1339C9.8683 16.8995 10 16.5815 10 16.25ZM21.25 17.5C21.5815 17.5 21.8995 17.3683 22.1339 17.1339C22.3683 16.8995 22.5 16.5815 22.5 16.25C22.5 15.9185 22.3683 15.6005 22.1339 15.3661C21.8995 15.1317 21.5815 15 21.25 15C20.9185 15 20.6005 15.1317 20.3661 15.3661C20.1317 15.6005 20 15.9185 20 16.25C20 16.5815 20.1317 16.8995 20.3661 17.1339C20.6005 17.3683 20.9185 17.5 21.25 17.5Z" fill="black"/>
</svg>
