<svg width="17" height="16" viewBox="0 0 17 16" fill="none" xmlns="http://www.w3.org/2000/svg">
<path d="M8.21875 0C3.7994 0 0.21875 3.58065 0.21875 8C0.21875 12.4194 3.7994 16 8.21875 16C12.6381 16 16.2188 12.4194 16.2188 8C16.2188 3.58065 12.6381 0 8.21875 0ZM12.1413 10.1C12.2929 10.2516 12.2929 10.4968 12.1413 10.6484L10.8639 11.9226C10.7123 12.0742 10.4671 12.0742 10.3155 11.9226L8.21875 9.80645L6.11875 11.9226C5.96714 12.0742 5.72198 12.0742 5.57036 11.9226L4.29617 10.6452C4.14456 10.4935 4.14456 10.2484 4.29617 10.0968L6.4123 8L4.29617 5.9C4.14456 5.74839 4.14456 5.50323 4.29617 5.35161L5.57359 4.07419C5.7252 3.92258 5.97036 3.92258 6.12198 4.07419L8.21875 6.19355L10.3187 4.07742C10.4704 3.92581 10.7155 3.92581 10.8671 4.07742L12.1446 5.35484C12.2962 5.50645 12.2962 5.75161 12.1446 5.90323L10.0252 8L12.1413 10.1Z" fill="#FF0000"/>
</svg>
