<svg width="30" height="30" viewBox="0 0 30 30" fill="none" xmlns="http://www.w3.org/2000/svg">
<path d="M13.4375 7.5C12.918 7.5 12.5 7.91797 12.5 8.4375C12.5 8.95703 12.918 9.375 13.4375 9.375H14.0625V10.6758C9.67188 11.1406 6.25 14.8594 6.25 19.375H23.75C23.75 14.8594 20.3281 11.1406 15.9375 10.6758V9.375H16.5625C17.082 9.375 17.5 8.95703 17.5 8.4375C17.5 7.91797 17.082 7.5 16.5625 7.5H15H13.4375ZM5.9375 20.625C5.41797 20.625 5 21.043 5 21.5625C5 22.082 5.41797 22.5 5.9375 22.5H24.0625C24.582 22.5 25 22.082 25 21.5625C25 21.043 24.582 20.625 24.0625 20.625H5.9375Z" fill="black"/>
</svg>
