<svg width="30" height="30" viewBox="0 0 30 30" fill="none" xmlns="http://www.w3.org/2000/svg">
<path d="M9.375 5C8.33984 5 7.5 5.83984 7.5 6.875V23.125C7.5 24.1602 8.33984 25 9.375 25H13.125V21.875C13.125 20.8398 13.9648 20 15 20C16.0352 20 16.875 20.8398 16.875 21.875V25H20.625C21.6602 25 22.5 24.1602 22.5 23.125V6.875C22.5 5.83984 21.6602 5 20.625 5H9.375ZM10 14.375C10 14.0312 10.2812 13.75 10.625 13.75H11.875C12.2188 13.75 12.5 14.0312 12.5 14.375V15.625C12.5 15.9688 12.2188 16.25 11.875 16.25H10.625C10.2812 16.25 10 15.9688 10 15.625V14.375ZM14.375 13.75H15.625C15.9688 13.75 16.25 14.0312 16.25 14.375V15.625C16.25 15.9688 15.9688 16.25 15.625 16.25H14.375C14.0312 16.25 13.75 15.9688 13.75 15.625V14.375C13.75 14.0312 14.0312 13.75 14.375 13.75ZM17.5 14.375C17.5 14.0312 17.7812 13.75 18.125 13.75H19.375C19.7188 13.75 20 14.0312 20 14.375V15.625C20 15.9688 19.7188 16.25 19.375 16.25H18.125C17.7812 16.25 17.5 15.9688 17.5 15.625V14.375ZM16.7695 7.77734L18.125 9.80859V8.125C18.125 7.78125 18.4062 7.5 18.75 7.5C19.0938 7.5 19.375 7.78125 19.375 8.125V11.875C19.375 12.1523 19.1953 12.3945 18.9297 12.4727C18.6641 12.5508 18.3828 12.4492 18.2305 12.2227L16.875 10.1914V11.8789C16.875 12.2227 16.5938 12.5039 16.25 12.5039C15.9062 12.5039 15.625 12.2227 15.625 11.8789V8.12891C15.625 7.85156 15.8047 7.60938 16.0703 7.53125C16.3359 7.45312 16.6172 7.55469 16.7695 7.78125V7.77734ZM11.875 8.125V10.625C11.875 10.9688 12.1562 11.25 12.5 11.25C12.8438 11.25 13.125 10.9688 13.125 10.625V8.125C13.125 7.78125 13.4062 7.5 13.75 7.5C14.0938 7.5 14.375 7.78125 14.375 8.125V10.625C14.375 11.6602 13.5352 12.5 12.5 12.5C11.4648 12.5 10.625 11.6602 10.625 10.625V8.125C10.625 7.78125 10.9062 7.5 11.25 7.5C11.5938 7.5 11.875 7.78125 11.875 8.125Z" fill="black"/>
</svg>
