<svg width="30" height="30" viewBox="0 0 30 30" fill="none" xmlns="http://www.w3.org/2000/svg">
<path d="M13.7951 7.30904C14.0069 6.8982 13.8472 6.39336 13.441 6.18098C13.0347 5.9686 12.5278 6.12875 12.316 6.53611L9.08333 12.7718H6.11111C5.49653 12.7718 5 13.2696 5 13.8859C5 14.5021 5.49653 15 6.11111 15L7.91319 22.2245C8.15972 23.2167 9.04861 23.9131 10.0694 23.9131H19.9306C20.9514 23.9131 21.8403 23.2167 22.0868 22.2245L23.8889 15C24.5035 15 25 14.5021 25 13.8859C25 13.2696 24.5035 12.7718 23.8889 12.7718H20.9167L17.684 6.53611C17.4722 6.12875 16.9688 5.9686 16.559 6.18098C16.1493 6.39336 15.9931 6.8982 16.2049 7.30904L19.0382 12.7718H10.9618L13.7951 7.30904ZM11.6667 16.6712V20.0136C11.6667 20.32 11.4167 20.5707 11.1111 20.5707C10.8056 20.5707 10.5556 20.32 10.5556 20.0136V16.6712C10.5556 16.3648 10.8056 16.1141 11.1111 16.1141C11.4167 16.1141 11.6667 16.3648 11.6667 16.6712ZM15 16.1141C15.3056 16.1141 15.5556 16.3648 15.5556 16.6712V20.0136C15.5556 20.32 15.3056 20.5707 15 20.5707C14.6944 20.5707 14.4444 20.32 14.4444 20.0136V16.6712C14.4444 16.3648 14.6944 16.1141 15 16.1141ZM19.4444 16.6712V20.0136C19.4444 20.32 19.1944 20.5707 18.8889 20.5707C18.5833 20.5707 18.3333 20.32 18.3333 20.0136V16.6712C18.3333 16.3648 18.5833 16.1141 18.8889 16.1141C19.1944 16.1141 19.4444 16.3648 19.4444 16.6712Z" fill="black"/>
</svg>
