<svg width="30" height="30" viewBox="0 0 30 30" fill="none" xmlns="http://www.w3.org/2000/svg">
<path d="M25.1188 9.05469L22.8851 5.51172C22.6863 5.19531 22.3316 5 21.9534 5H8.04444C7.6663 5 7.31156 5.19531 7.11275 5.51172L4.87515 9.05469C3.72126 10.8828 4.74261 13.4258 6.89835 13.7188C7.05428 13.7383 7.21411 13.75 7.37004 13.75C8.38748 13.75 9.29188 13.3047 9.9117 12.6172C10.5315 13.3047 11.4359 13.75 12.4534 13.75C13.4708 13.75 14.3752 13.3047 14.995 12.6172C15.6149 13.3047 16.5193 13.75 17.5367 13.75C18.558 13.75 19.4585 13.3047 20.0784 12.6172C20.7021 13.3047 21.6026 13.75 22.62 13.75C22.7799 13.75 22.9358 13.7383 23.0917 13.7188C25.2553 13.4297 26.2805 10.8867 25.1227 9.05469H25.1188ZM23.2516 14.957C23.2516 14.957 23.2516 14.957 23.2477 14.957C23.041 14.9844 22.8305 15 22.6161 15C22.1328 15 21.6689 14.9258 21.2362 14.793V20H8.76172V14.7891C8.32511 14.9258 7.85732 15 7.37393 15C7.15953 15 6.94513 14.9844 6.73852 14.957H6.73462C6.57479 14.9336 6.41886 14.9062 6.26683 14.8672V20V22.5C6.26683 23.8789 7.38563 25 8.76172 25H21.2362C22.6122 25 23.731 23.8789 23.731 22.5V20V14.8672C23.5751 14.9062 23.4192 14.9375 23.2516 14.957Z" fill="black"/>
</svg>
