<svg width="30" height="30" viewBox="0 0 30 30" fill="none" xmlns="http://www.w3.org/2000/svg">
<path d="M15.0002 5C19.8573 5 23.7181 6.375 23.7181 8.125V8.75V21.25C23.7181 21.9414 23.1616 22.5 22.4727 22.5V23.75C22.4727 24.4414 21.9162 25 21.2273 25H19.9819C19.293 25 18.7364 24.4414 18.7364 23.75V22.5H11.2639V23.75C11.2639 24.4414 10.7074 25 10.0185 25H8.77307C8.0842 25 7.52765 24.4414 7.52765 23.75V22.5C6.83877 22.5 6.28223 21.9414 6.28223 21.25V8.75V8.125C6.28223 6.375 10.143 5 15.0002 5ZM8.77307 10V15C8.77307 15.6914 9.32962 16.25 10.0185 16.25H19.9819C20.6707 16.25 21.2273 15.6914 21.2273 15V10C21.2273 9.30859 20.6707 8.75 19.9819 8.75H10.0185C9.32962 8.75 8.77307 9.30859 8.77307 10ZM9.39578 20.625C9.72609 20.625 10.0429 20.4933 10.2764 20.2589C10.51 20.0245 10.6412 19.7065 10.6412 19.375C10.6412 19.0435 10.51 18.7255 10.2764 18.4911C10.0429 18.2567 9.72609 18.125 9.39578 18.125C9.06547 18.125 8.7487 18.2567 8.51513 18.4911C8.28157 18.7255 8.15036 19.0435 8.15036 19.375C8.15036 19.7065 8.28157 20.0245 8.51513 20.2589C8.7487 20.4933 9.06547 20.625 9.39578 20.625ZM20.6046 20.625C20.9349 20.625 21.2517 20.4933 21.4852 20.2589C21.7188 20.0245 21.85 19.7065 21.85 19.375C21.85 19.0435 21.7188 18.7255 21.4852 18.4911C21.2517 18.2567 20.9349 18.125 20.6046 18.125C20.2743 18.125 19.9575 18.2567 19.7239 18.4911C19.4904 18.7255 19.3591 19.0435 19.3591 19.375C19.3591 19.7065 19.4904 20.0245 19.7239 20.2589C19.9575 20.4933 20.2743 20.625 20.6046 20.625Z" fill="black"/>
</svg>
