<svg width="40" height="35" viewBox="0 0 40 35" fill="none" xmlns="http://www.w3.org/2000/svg">
<path d="M19.9971 0C21.1065 0 22.1299 0.585937 22.6924 1.54688L39.5674 30.2969C40.1377 31.2656 40.1377 32.4609 39.5831 33.4297C39.0284 34.3984 37.9893 35 36.8721 35H3.12212C2.00493 35 0.965866 34.3984 0.411179 33.4297C-0.143509 32.4609 -0.135696 31.2578 0.426804 30.2969L17.3018 1.54688C17.8643 0.585937 18.8877 0 19.9971 0ZM19.9971 10C18.9581 10 18.1221 10.8359 18.1221 11.875V20.625C18.1221 21.6641 18.9581 22.5 19.9971 22.5C21.0362 22.5 21.8721 21.6641 21.8721 20.625V11.875C21.8721 10.8359 21.0362 10 19.9971 10ZM22.4971 27.5C22.4971 26.837 22.2337 26.2011 21.7649 25.7322C21.296 25.2634 20.6602 25 19.9971 25C19.3341 25 18.6982 25.2634 18.2293 25.7322C17.7605 26.2011 17.4971 26.837 17.4971 27.5C17.4971 28.163 17.7605 28.7989 18.2293 29.2678C18.6982 29.7366 19.3341 30 19.9971 30C20.6602 30 21.296 29.7366 21.7649 29.2678C22.2337 28.7989 22.4971 28.163 22.4971 27.5Z" fill="#FF6767"/>
</svg>
