<svg width="30" height="30" viewBox="0 0 30 30" fill="none" xmlns="http://www.w3.org/2000/svg">
<path d="M14.9983 7.2229C12.193 7.2229 9.94662 8.50057 8.31134 10.0213C6.68649 11.5281 5.59977 13.3335 5.08593 14.573C4.97136 14.8472 4.97136 15.1528 5.08593 15.427C5.59977 16.6665 6.68649 18.4719 8.31134 19.9787C9.94662 21.4994 12.193 22.7771 14.9983 22.7771C17.8036 22.7771 20.0499 21.4994 21.6852 19.9787C23.31 18.4685 24.3968 16.6665 24.9141 15.427C25.0286 15.1528 25.0286 14.8472 24.9141 14.573C24.3968 13.3335 23.31 11.5281 21.6852 10.0213C20.0499 8.50057 17.8036 7.2229 14.9983 7.2229ZM9.9987 15C9.9987 13.674 10.5254 12.4024 11.463 11.4648C12.4006 10.5272 13.6723 10.0004 14.9983 10.0004C16.3242 10.0004 17.5959 10.5272 18.5335 11.4648C19.4711 12.4024 19.9978 13.674 19.9978 15C19.9978 16.326 19.4711 17.5976 18.5335 18.5352C17.5959 19.4728 16.3242 19.9996 14.9983 19.9996C13.6723 19.9996 12.4006 19.4728 11.463 18.5352C10.5254 17.5976 9.9987 16.326 9.9987 15ZM14.9983 12.778C14.9983 14.0036 14.0018 15 12.7762 15C12.5297 15 12.2936 14.9583 12.0714 14.8854C11.8805 14.8229 11.6583 14.941 11.6652 15.1424C11.6756 15.3819 11.7104 15.6215 11.7763 15.861C12.252 17.6387 14.0817 18.6941 15.8593 18.2185C17.6369 17.7428 18.6924 15.9131 18.2167 14.1355C17.8314 12.6946 16.5572 11.726 15.1406 11.667C14.9392 11.66 14.8212 11.8787 14.8837 12.0732C14.9566 12.2954 14.9983 12.5315 14.9983 12.778Z" fill="black"/>
</svg>
