<svg width="16" height="16" viewBox="0 0 16 16" fill="none" xmlns="http://www.w3.org/2000/svg">
<path d="M7.47334 0.232261L0.972065 2.67024C0.387576 2.88903 0 3.45164 0 4.07676V11.1125C0 11.6814 0.321938 12.2002 0.828287 12.4534L7.32956 15.704C7.75151 15.9166 8.24849 15.9166 8.67044 15.704L15.1717 12.4534C15.6812 12.2002 16 11.6782 16 11.1125V4.07676C16 3.45164 15.6124 2.89216 15.0279 2.67336L8.52667 0.235387C8.1891 0.104111 7.81403 0.104111 7.47334 0.232261ZM8.00156 2.17326L14.0027 4.4237V4.45809L8.00156 6.89606L2.00039 4.45809V4.4237L8.00156 2.17326ZM9.00176 13.3004V8.6464L14.0027 6.61476V10.7999L9.00176 13.3004Z" fill="black"/>
</svg>
