<svg width="30" height="30" viewBox="0 0 30 30" fill="none" xmlns="http://www.w3.org/2000/svg">
<path d="M12.5 9.09375C12.5 8.73438 12.2734 8.41797 11.9844 8.20312C11.5312 7.86328 11.25 7.39453 11.25 6.875C11.25 5.83984 12.3711 5 13.75 5C15.1289 5 16.25 5.83984 16.25 6.875C16.25 7.39453 15.9688 7.86328 15.5156 8.20312C15.2266 8.41797 15 8.73438 15 9.09375C15 9.59375 15.4062 10 15.9062 10H18.125C19.1602 10 20 10.8398 20 11.875V14.0938C20 14.5938 20.4062 15 20.9062 15C21.2656 15 21.582 14.7734 21.7969 14.4844C22.1367 14.0312 22.6055 13.75 23.125 13.75C24.1602 13.75 25 14.8711 25 16.25C25 17.6289 24.1602 18.75 23.125 18.75C22.6055 18.75 22.1367 18.4688 21.7969 18.0156C21.582 17.7266 21.2656 17.5 20.9062 17.5C20.4062 17.5 20 17.9062 20 18.4062V23.125C20 24.1602 19.1602 25 18.125 25H15.9062C15.4062 25 15 24.5938 15 24.0938C15 23.7344 15.2266 23.418 15.5156 23.2031C15.9688 22.8633 16.25 22.3945 16.25 21.875C16.25 20.8398 15.1289 20 13.75 20C12.3711 20 11.25 20.8398 11.25 21.875C11.25 22.3945 11.5312 22.8633 11.9844 23.2031C12.2734 23.418 12.5 23.7344 12.5 24.0938C12.5 24.5938 12.0938 25 11.5938 25H6.875C5.83984 25 5 24.1602 5 23.125V18.4062C5 17.9062 5.40625 17.5 5.90625 17.5C6.26562 17.5 6.58203 17.7266 6.79688 18.0156C7.13672 18.4688 7.60547 18.75 8.125 18.75C9.16016 18.75 10 17.6289 10 16.25C10 14.8711 9.16016 13.75 8.125 13.75C7.60547 13.75 7.13672 14.0312 6.79688 14.4844C6.58203 14.7734 6.26562 15 5.90625 15C5.40625 15 5 14.5938 5 14.0938V11.875C5 10.8398 5.83984 10 6.875 10H11.5938C12.0938 10 12.5 9.59375 12.5 9.09375Z" fill="black"/>
</svg>
