<svg width="30" height="30" viewBox="0 0 30 30" fill="none" xmlns="http://www.w3.org/2000/svg">
<path d="M14.4766 5.23047L8.67188 11.6172C8.51953 11.7812 8.4375 12 8.4375 12.2227C8.4375 12.7227 8.83984 13.125 9.33984 13.125H10.3125L7.44531 15.9922C7.28125 16.1562 7.1875 16.3828 7.1875 16.6172C7.1875 17.1055 7.58203 17.5 8.07031 17.5H9.375L6.46094 20.9961C6.32422 21.1602 6.25 21.3672 6.25 21.582C6.25 22.0898 6.66016 22.5 7.16797 22.5H13.75V23.75C13.75 24.4414 14.3086 25 15 25C15.6914 25 16.25 24.4414 16.25 23.75V22.5H22.832C23.3398 22.5 23.75 22.0898 23.75 21.582C23.75 21.3672 23.6758 21.1602 23.5391 20.9961L20.625 17.5H21.9297C22.418 17.5 22.8125 17.1055 22.8125 16.6172C22.8125 16.3828 22.7188 16.1562 22.5547 15.9922L19.6875 13.125H20.6602C21.1562 13.125 21.5625 12.7227 21.5625 12.2227C21.5625 12 21.4805 11.7812 21.3281 11.6172L15.5234 5.23047C15.3906 5.08203 15.1992 5 15 5C14.8008 5 14.6094 5.08203 14.4766 5.23047Z" fill="black"/>
</svg>
