<svg width="20" height="21" viewBox="0 0 20 21" fill="none" xmlns="http://www.w3.org/2000/svg">
<path d="M12.1429 7C12.1429 6.41984 11.9171 5.86344 11.5152 5.4532C11.1134 5.04297 10.5683 4.8125 10 4.8125C9.43168 4.8125 8.88664 5.04297 8.48477 5.4532C8.08291 5.86344 7.85714 6.41984 7.85714 7C7.85714 7.58016 8.08291 8.13656 8.48477 8.5468C8.88664 8.95703 9.43168 9.1875 10 9.1875C10.5683 9.1875 11.1134 8.95703 11.5152 8.5468C11.9171 8.13656 12.1429 7.58016 12.1429 7ZM6.57143 7C6.57143 6.07174 6.93265 5.1815 7.57563 4.52513C8.21862 3.86875 9.09069 3.5 10 3.5C10.9093 3.5 11.7814 3.86875 12.4244 4.52513C13.0673 5.1815 13.4286 6.07174 13.4286 7C13.4286 7.92826 13.0673 8.8185 12.4244 9.47487C11.7814 10.1313 10.9093 10.5 10 10.5C9.09069 10.5 8.21862 10.1313 7.57563 9.47487C6.93265 8.8185 6.57143 7.92826 6.57143 7ZM5.32054 16.1875H14.6821C14.4438 14.4566 12.9866 13.125 11.2268 13.125H8.77857C7.01875 13.125 5.56161 14.4566 5.32321 16.1875H5.32054ZM4 16.6879C4 13.9945 6.1375 11.8125 8.77589 11.8125H11.2241C13.8625 11.8125 16 13.9945 16 16.6879C16 17.1363 15.6438 17.5 15.2045 17.5H4.79554C4.35625 17.5 4 17.1363 4 16.6879Z" fill="black"/>
</svg>
