<svg width="147" height="100" viewBox="0 0 147 100" fill="none" xmlns="http://www.w3.org/2000/svg">
<path d="M133.219 100H13.7812C6.16998 100 0 94.4036 0 87.5V12.5C0 5.59635 6.16998 0 13.7812 0H133.219C140.83 0 147 5.59635 147 12.5V87.5C147 94.4036 140.83 100 133.219 100ZM32.1562 14.5833C23.2765 14.5833 16.0781 21.1125 16.0781 29.1667C16.0781 37.2208 23.2765 43.75 32.1562 43.75C41.036 43.75 48.2344 37.2208 48.2344 29.1667C48.2344 21.1125 41.036 14.5833 32.1562 14.5833ZM18.375 83.3333H128.625V54.1667L103.499 31.3763C102.153 30.156 99.9718 30.156 98.6261 31.3763L59.7188 66.6667L43.7799 52.2096C42.4345 50.9893 40.253 50.9893 38.9073 52.2096L18.375 70.8333V83.3333Z" fill="#E7E7E7"/>
</svg>
