<svg width="170" height="103" viewBox="0 0 170 103" fill="none" xmlns="http://www.w3.org/2000/svg">
<rect x="0.5" y="0.5" width="169" height="102" rx="7.5" fill="white"/>
<rect x="0.5" y="0.5" width="169" height="102" rx="7.5" stroke="#EFF5F4"/>
<path d="M62.6865 56.7963H70.5993V54.413H65.4989V45.4356H62.6865V56.7963Z" fill="#1A1414"/>
<path d="M75.2899 55.2074C74.1617 55.2074 73.5738 54.2223 73.5738 52.7446C73.5738 51.2669 74.1617 50.2659 75.2899 50.2659C76.418 50.2659 77.0218 51.2669 77.0218 52.7446C77.0218 54.2223 76.418 55.2074 75.2899 55.2074ZM75.3058 57.0506C77.9275 57.0506 79.6435 55.1915 79.6435 52.7446C79.6435 50.2977 77.9275 48.4387 75.3058 48.4387C72.6999 48.4387 70.9521 50.2977 70.9521 52.7446C70.9521 55.1915 72.6999 57.0506 75.3058 57.0506Z" fill="#1A1414"/>
<path d="M84.1803 59.6087C85.3878 59.6087 86.4524 59.3386 87.1674 58.703C87.8189 58.1151 88.2479 57.2254 88.2479 56.0019V48.6611H85.7692V49.535H85.7374C85.2607 48.8518 84.5298 48.4228 83.4494 48.4228C81.4314 48.4228 80.0332 50.107 80.0332 52.4904C80.0332 54.985 81.7333 56.3515 83.5606 56.3515C84.5457 56.3515 85.1654 55.9542 85.6421 55.414H85.7056V56.2243C85.7056 57.2095 85.2448 57.7815 84.1485 57.7815C83.2905 57.7815 82.8615 57.416 82.7185 56.987H80.208C80.4622 58.6872 81.9399 59.6087 84.1803 59.6087ZM84.1644 54.4289C83.1951 54.4289 82.5596 53.6344 82.5596 52.411C82.5596 51.1716 83.1951 50.3771 84.1644 50.3771C85.2448 50.3771 85.8168 51.2987 85.8168 52.3951C85.8168 53.5391 85.2925 54.4289 84.1644 54.4289Z" fill="#1A1414"/>
<path d="M93.3446 55.2074C92.2164 55.2074 91.6285 54.2223 91.6285 52.7446C91.6285 51.2669 92.2164 50.2659 93.3446 50.2659C94.4727 50.2659 95.0765 51.2669 95.0765 52.7446C95.0765 54.2223 94.4727 55.2074 93.3446 55.2074ZM93.3605 57.0506C95.9822 57.0506 97.6982 55.1915 97.6982 52.7446C97.6982 50.2977 95.9822 48.4387 93.3605 48.4387C90.7546 48.4387 89.0068 50.2977 89.0068 52.7446C89.0068 55.1915 90.7546 57.0506 93.3605 57.0506Z" fill="#1A1414"/>
<path d="M98.4531 56.7963H101.043V48.6611H98.4531V56.7963ZM98.4531 47.533H101.043V45.4356H98.4531V47.533Z" fill="#1A1414"/>
<path d="M102.168 59.4816H104.758V55.9542H104.79C105.298 56.6375 106.045 57.0506 107.094 57.0506C109.223 57.0506 110.637 55.3663 110.637 52.7287C110.637 50.2818 109.318 48.4228 107.157 48.4228C106.045 48.4228 105.25 48.9154 104.694 49.6463H104.647V48.6611H102.168V59.4816ZM106.426 55.0485C105.314 55.0485 104.678 54.1429 104.678 52.8241C104.678 51.5053 105.25 50.5043 106.379 50.5043C107.491 50.5043 108.015 51.4258 108.015 52.8241C108.015 54.2064 107.411 55.0485 106.426 55.0485Z" fill="#1A1414"/>
<path d="M114.853 57.0506C116.982 57.0506 118.555 56.129 118.555 54.3494C118.555 52.268 116.871 51.9025 115.441 51.6642C114.408 51.4735 113.486 51.3941 113.486 50.822C113.486 50.3136 113.979 50.0753 114.615 50.0753C115.33 50.0753 115.822 50.2977 115.917 51.0286H118.301C118.174 49.4238 116.934 48.4228 114.63 48.4228C112.708 48.4228 111.119 49.3126 111.119 51.0286C111.119 52.9353 112.628 53.3166 114.043 53.555C115.123 53.7456 116.108 53.8251 116.108 54.556C116.108 55.0803 115.616 55.3663 114.837 55.3663C113.979 55.3663 113.439 54.9691 113.343 54.1588H110.896C110.976 55.9542 112.47 57.0506 114.853 57.0506Z" fill="#1A1414"/>
<path d="M122.074 57.0347C123.202 57.0347 123.917 56.5898 124.505 55.7953H124.553V56.7963H127.031V48.6611H124.441V53.2054C124.441 54.1746 123.901 54.842 123.011 54.842C122.185 54.842 121.788 54.3494 121.788 53.4596V48.6611H119.214V53.9998C119.214 55.8112 120.199 57.0347 122.074 57.0347Z" fill="#1A1414"/>
<path d="M128.157 56.7963H130.747V52.2362C130.747 51.2669 131.224 50.5837 132.034 50.5837C132.813 50.5837 133.178 51.0922 133.178 51.9661V56.7963H135.768V52.2362C135.768 51.2669 136.229 50.5837 137.055 50.5837C137.834 50.5837 138.199 51.0922 138.199 51.9661V56.7963H140.789V51.5053C140.789 49.678 139.868 48.4228 138.024 48.4228C136.976 48.4228 136.102 48.8677 135.466 49.8528H135.434C135.021 48.9789 134.211 48.4228 133.146 48.4228C131.971 48.4228 131.192 48.9789 130.684 49.821H130.636V48.6611H128.157V56.7963Z" fill="#1A1414"/>
<path fill-rule="evenodd" clip-rule="evenodd" d="M42.71 38C50.1658 38 56.21 44.0441 56.21 51.5C56.21 58.9559 50.1658 65 42.71 65C35.2541 65 29.21 58.9559 29.21 51.5C29.21 44.0441 35.2541 38 42.71 38ZM55.6918 51.5C55.6918 44.3303 49.8796 38.5181 42.71 38.5181C42.1316 38.5181 41.5622 38.5559 41.0038 38.6292C41.3646 38.5977 41.7296 38.5816 42.0985 38.5816C48.9495 38.5816 54.5033 44.1354 54.5033 50.9864C54.5033 57.8373 48.9495 63.3912 42.0985 63.3912C35.6125 63.3912 30.2891 58.4133 29.7404 52.0695C30.0385 58.9749 35.7311 64.4818 42.71 64.4818C49.8796 64.4818 55.6918 58.6697 55.6918 51.5ZM53.9852 50.9864C53.9852 44.4216 48.6634 39.0997 42.0985 39.0997C41.5655 39.0997 41.0406 39.1348 40.5262 39.2028C40.8429 39.1762 41.1634 39.1626 41.4871 39.1626C47.7332 39.1626 52.7967 44.2261 52.7967 50.4721C52.7967 56.7183 47.7332 61.7817 41.4871 61.7817C35.5812 61.7817 30.7327 57.2549 30.222 51.4817C30.4816 57.8168 35.6996 62.873 42.0985 62.873C48.6634 62.873 53.9852 57.5512 53.9852 50.9864ZM41.4871 39.6807C47.447 39.6807 52.2786 44.5122 52.2786 50.4721C52.2786 56.4321 47.447 61.2635 41.4871 61.2635C35.6653 61.2635 30.9201 56.6533 30.7034 50.8845C31.1713 56.0914 35.547 60.1722 40.8758 60.1722C46.5166 60.1722 51.0895 55.5994 51.0895 49.9585C51.0895 44.3176 46.5166 39.7448 40.8758 39.7448C40.5839 39.7448 40.295 39.7571 40.0094 39.781C40.4925 39.7149 40.9858 39.6807 41.4871 39.6807ZM50.5713 49.9585C50.5713 44.6038 46.2305 40.2629 40.8758 40.2629C40.4233 40.2629 39.9781 40.2939 39.5422 40.3539C39.7802 40.3353 40.0208 40.3258 40.2636 40.3258C45.2997 40.3258 49.3822 44.4083 49.3822 49.4443C49.3822 54.4803 45.2997 58.5628 40.2636 58.5628C35.5236 58.5628 31.6284 54.9461 31.1868 50.3218C31.3779 55.5082 35.6426 59.6541 40.8758 59.6541C46.2305 59.6541 50.5713 55.3133 50.5713 49.9585ZM40.2636 40.8439C45.0135 40.8439 48.864 44.6945 48.864 49.4443C48.864 54.1942 45.0135 58.0447 40.2636 58.0447C35.6074 58.0447 31.8153 54.3444 31.6677 49.724C32.0664 53.7824 35.489 56.9534 39.6523 56.9534C44.0835 56.9534 47.6756 53.3612 47.6756 48.93C47.6756 44.4989 44.0835 40.9067 39.6523 40.9067C39.4491 40.9067 39.2476 40.9143 39.0482 40.9291C39.4453 40.873 39.8511 40.8439 40.2636 40.8439ZM47.1575 48.93C47.1575 44.785 43.7973 41.4249 39.6523 41.4249C39.2739 41.4249 38.9021 41.4529 38.5388 41.5069C38.7046 41.495 38.872 41.489 39.0409 41.489C42.8668 41.489 45.9684 44.5905 45.9684 48.4164C45.9684 52.2424 42.8668 55.3439 39.0409 55.3439C35.4558 55.3439 32.5068 52.6205 32.1497 49.1297C32.2556 53.1824 35.5741 56.4352 39.6523 56.4352C43.7973 56.4352 47.1575 53.075 47.1575 48.93ZM39.0409 42.0071C42.5807 42.0071 45.4502 44.8767 45.4502 48.4164C45.4502 51.9562 42.5807 54.8257 39.0409 54.8257C35.5462 54.8257 32.7047 52.0288 32.633 48.5513C32.9558 51.4669 35.4278 53.7344 38.4295 53.7344C41.6506 53.7344 44.2617 51.1233 44.2617 47.9022C44.2617 44.6811 41.6506 42.0699 38.4295 42.0699C38.3063 42.0699 38.184 42.0738 38.0627 42.0813C38.3817 42.0325 38.7083 42.0071 39.0409 42.0071ZM43.7436 47.9022C43.7436 44.9673 41.3644 42.5881 38.4295 42.5881C38.1348 42.5881 37.8457 42.6121 37.564 42.6582C37.6479 42.6538 37.7324 42.6515 37.8175 42.6515C40.4336 42.6515 42.5545 44.7724 42.5545 47.3886C42.5545 50.0048 40.4336 52.1257 37.8175 52.1257C35.3984 52.1257 33.4028 50.3123 33.1158 47.9708C33.1526 50.8741 35.5175 53.2163 38.4295 53.2163C41.3644 53.2163 43.7436 50.8371 43.7436 47.9022ZM37.8175 43.1697C40.1475 43.1697 42.0363 45.0585 42.0363 47.3886C42.0363 49.7187 40.1475 51.6075 37.8175 51.6075C35.4874 51.6075 33.5985 49.7187 33.5985 47.3886C33.5985 47.383 33.5985 47.3774 33.5986 47.3718C33.8411 49.1474 35.3638 50.5156 37.2061 50.5156C39.217 50.5156 40.8472 48.8853 40.8472 46.8744C40.8472 44.8633 39.217 43.2332 37.2061 43.2332C37.1606 43.2332 37.1153 43.234 37.0702 43.2356C37.3127 43.1923 37.5624 43.1697 37.8175 43.1697ZM40.3291 46.8744C40.3291 45.1495 38.9309 43.7513 37.2061 43.7513C35.4812 43.7513 34.083 45.1495 34.083 46.8744C34.083 48.5991 35.4812 49.9974 37.2061 49.9974C38.9309 49.9974 40.3291 48.5991 40.3291 46.8744Z" fill="#1A1414"/>
</svg>
