<svg width="47" height="49" viewBox="0 0 47 49" fill="none" xmlns="http://www.w3.org/2000/svg">
<g filter="url(#filter0_d_201_6756)">
<path d="M18.5832 1.98316C18.6387 0.839036 20.0893 0.457722 20.7002 1.42669L27.4645 12.1561C27.7377 12.5894 28.2492 12.797 28.7313 12.6702L40.6695 9.53215C41.7476 9.24875 42.5696 10.5525 41.869 11.4348L34.1114 21.204C33.7981 21.5985 33.7709 22.159 34.0441 22.5924L40.8085 33.3217C41.4194 34.2907 40.4767 35.4778 39.4328 35.0541L27.874 30.3624C27.4072 30.1729 26.879 30.3118 26.5657 30.7063L18.8081 40.4755C18.1075 41.3578 16.703 40.7877 16.7584 39.6436L17.3723 26.9748C17.3971 26.4631 17.0978 25.9884 16.631 25.7989L5.07215 21.1072C4.02827 20.6835 4.10287 19.1441 5.18101 18.8607L17.1192 15.7226C17.6014 15.5959 17.9446 15.1636 17.9694 14.652L18.5832 1.98316Z" fill="url(#paint0_linear_201_6756)"/>
<path d="M19.0827 2.00736C19.1144 1.35147 19.927 1.13787 20.2772 1.69335L27.0416 12.4227C27.4267 13.0336 28.1573 13.3381 28.8584 13.1538L40.7966 10.0157C41.3775 9.86302 41.8999 10.5918 41.4774 11.1238L33.7198 20.893C33.2715 21.4577 33.2373 22.2501 33.6212 22.859L40.3855 33.5884C40.7674 34.1941 40.1628 34.8108 39.6209 34.5908L28.0621 29.8991C27.3896 29.6262 26.6254 29.8271 26.1741 30.3954L18.4165 40.1646C18.0528 40.6226 17.2232 40.383 17.2578 39.6678L17.8717 26.999C17.9065 26.28 17.4871 25.6068 16.819 25.3356L5.2602 20.6439C4.63067 20.3884 4.72718 19.497 5.30812 19.3443L17.2463 16.2062C17.9474 16.0219 18.4338 15.3975 18.4688 14.6762L19.0827 2.00736Z" stroke="white"/>
</g>
<defs>
<filter id="filter0_d_201_6756" x="0.329346" y="0.874268" width="45.7996" height="48.032" filterUnits="userSpaceOnUse" color-interpolation-filters="sRGB">
<feFlood flood-opacity="0" result="BackgroundImageFix"/>
<feColorMatrix in="SourceAlpha" type="matrix" values="0 0 0 0 0 0 0 0 0 0 0 0 0 0 0 0 0 0 127 0" result="hardAlpha"/>
<feOffset dy="4"/>
<feGaussianBlur stdDeviation="2"/>
<feComposite in2="hardAlpha" operator="out"/>
<feColorMatrix type="matrix" values="0 0 0 0 0 0 0 0 0 0 0 0 0 0 0 0 0 0 0.25 0"/>
<feBlend mode="normal" in2="BackgroundImageFix" result="effect1_dropShadow_201_6756"/>
<feBlend mode="normal" in="SourceGraphic" in2="effect1_dropShadow_201_6756" result="shape"/>
</filter>
<linearGradient id="paint0_linear_201_6756" x1="4.36086" y1="20.5234" x2="46.5315" y2="25.7422" gradientUnits="userSpaceOnUse">
<stop offset="0.1" stop-color="#FFF051"/>
<stop offset="0.225" stop-color="#999030"/>
<stop offset="0.44" stop-color="#FFF051"/>
<stop offset="0.695" stop-color="#A59C34"/>
<stop offset="0.825" stop-color="#FBED50"/>
</linearGradient>
</defs>
</svg>
