<svg width="13" height="14" viewBox="0 0 13 14" fill="none" xmlns="http://www.w3.org/2000/svg">
<path d="M0.536 6.72872C0.467628 6.57651 0.49682 6.39757 0.623731 6.26813C0.623748 6.26811 0.623765 6.26809 0.623782 6.26807L6.14965 0.643377L6.15094 0.642056C6.23634 0.554485 6.36173 0.5 6.5 0.5C6.63827 0.5 6.76366 0.554485 6.84906 0.642059L6.85035 0.643375L12.3762 6.26807C12.3763 6.26814 12.3763 6.26821 12.3764 6.26827C12.5032 6.3977 12.5323 6.57656 12.464 6.72872C12.3931 6.88652 12.2264 7 12.0262 7H9.10055H8.60055V7.5V12.75C8.60055 13.1469 8.26211 13.5 7.80027 13.5H5.19973C4.73789 13.5 4.39945 13.1469 4.39945 12.75V7.5V7H3.89945H0.973838C0.773574 7 0.606884 6.88653 0.536 6.72872Z" fill="#C81C1C" stroke="white"/>
</svg>
