<svg width="195" height="48" viewBox="0 0 195 48" fill="none" xmlns="http://www.w3.org/2000/svg">
<path d="M58.5059 33.2559H72.3342V29.0907H63.4208V13.4019H58.5059V33.2559Z" fill="#1A1414"/>
<path d="M80.5259 30.4791C78.5544 30.4791 77.527 28.7575 77.527 26.175C77.527 23.5926 78.5544 21.8433 80.5259 21.8433C82.4974 21.8433 83.5526 23.5926 83.5526 26.175C83.5526 28.7575 82.4974 30.4791 80.5259 30.4791ZM80.5537 33.7001C85.1354 33.7001 88.1343 30.4513 88.1343 26.175C88.1343 21.8988 85.1354 18.65 80.5537 18.65C75.9998 18.65 72.9453 21.8988 72.9453 26.175C72.9453 30.4513 75.9998 33.7001 80.5537 33.7001Z" fill="#1A1414"/>
<path d="M96.0638 38.1708C98.1742 38.1708 100.035 37.6987 101.284 36.588C102.423 35.5606 103.172 34.0056 103.172 31.8675V19.0387H98.8406V20.566H98.7851C97.952 19.372 96.6747 18.6222 94.7865 18.6222C91.26 18.6222 88.8164 21.5656 88.8164 25.7308C88.8164 30.0903 91.7876 32.4784 94.9809 32.4784C96.7025 32.4784 97.7854 31.7842 98.6185 30.8401H98.7295V32.2562C98.7295 33.9778 97.9243 34.9775 96.0083 34.9775C94.5088 34.9775 93.7591 34.3388 93.5092 33.5891H89.1219C89.5661 36.5602 92.1485 38.1708 96.0638 38.1708ZM96.036 29.1185C94.3422 29.1185 93.2315 27.7301 93.2315 25.5919C93.2315 23.4261 94.3422 22.0377 96.036 22.0377C97.9243 22.0377 98.9239 23.6482 98.9239 25.5642C98.9239 27.5635 98.0076 29.1185 96.036 29.1185Z" fill="#1A1414"/>
<path d="M112.085 30.4791C110.113 30.4791 109.086 28.7575 109.086 26.175C109.086 23.5926 110.113 21.8433 112.085 21.8433C114.056 21.8433 115.111 23.5926 115.111 26.175C115.111 28.7575 114.056 30.4791 112.085 30.4791ZM112.112 33.7001C116.694 33.7001 119.693 30.4513 119.693 26.175C119.693 21.8988 116.694 18.65 112.112 18.65C107.558 18.65 104.504 21.8988 104.504 26.175C104.504 30.4513 107.558 33.7001 112.112 33.7001Z" fill="#1A1414"/>
<path d="M121.01 33.2559H125.536V19.0388H121.01V33.2559ZM121.01 17.0673H125.536V13.4019H121.01V17.0673Z" fill="#1A1414"/>
<path d="M127.5 37.9486H132.026V31.7842H132.082C132.97 32.9782 134.275 33.7002 136.108 33.7002C139.829 33.7002 142.3 30.7568 142.3 26.1473C142.3 21.8711 139.996 18.6222 136.219 18.6222C134.275 18.6222 132.887 19.483 131.915 20.7603H131.832V19.0387H127.5V37.9486ZM134.942 30.2014C132.998 30.2014 131.887 28.6186 131.887 26.3139C131.887 24.0092 132.887 22.2598 134.858 22.2598C136.802 22.2598 137.719 23.8703 137.719 26.3139C137.719 28.7297 136.663 30.2014 134.942 30.2014Z" fill="#1A1414"/>
<path d="M149.674 33.7002C153.395 33.7002 156.144 32.0896 156.144 28.9796C156.144 25.342 153.2 24.7034 150.701 24.2869C148.896 23.9536 147.286 23.8148 147.286 22.8152C147.286 21.9266 148.147 21.5101 149.257 21.5101C150.507 21.5101 151.368 21.8988 151.534 23.1761H155.7C155.477 20.3716 153.312 18.6222 149.285 18.6222C145.925 18.6222 143.149 20.1772 143.149 23.1761C143.149 26.5083 145.786 27.1747 148.258 27.5912C150.146 27.9244 151.868 28.0633 151.868 29.3406C151.868 30.2569 151.007 30.7568 149.646 30.7568C148.147 30.7568 147.203 30.0626 147.036 28.6464H142.76C142.899 31.7842 145.509 33.7002 149.674 33.7002Z" fill="#1A1414"/>
<path d="M162.287 33.6724C164.259 33.6724 165.508 32.8949 166.536 31.5065H166.619V33.2559H170.951V19.0387H166.425V26.9803C166.425 28.6742 165.481 29.8404 163.926 29.8404C162.482 29.8404 161.787 28.9796 161.787 27.4246V19.0387H157.289V28.3687C157.289 31.5342 159.011 33.6724 162.287 33.6724Z" fill="#1A1414"/>
<path d="M172.924 33.2559H177.45V25.2865C177.45 23.5927 178.283 22.3986 179.699 22.3986C181.06 22.3986 181.698 23.2872 181.698 24.8144V33.2559H186.225V25.2865C186.225 23.5927 187.03 22.3986 188.474 22.3986C189.834 22.3986 190.473 23.2872 190.473 24.8144V33.2559H194.999V24.0092C194.999 20.8159 193.389 18.6222 190.168 18.6222C188.335 18.6222 186.808 19.3997 185.697 21.1213H185.641C184.92 19.5941 183.503 18.6222 181.643 18.6222C179.588 18.6222 178.227 19.5941 177.339 21.0658H177.256V19.0387H172.924V33.2559Z" fill="#1A1414"/>
<path fill-rule="evenodd" clip-rule="evenodd" d="M23.5927 0.407379C36.6225 0.407379 47.1852 10.9701 47.1852 23.9999C47.1852 37.0299 36.6225 47.5926 23.5927 47.5926C10.5628 47.5926 0 37.0299 0 23.9999C0 10.9701 10.5628 0.407379 23.5927 0.407379ZM46.2797 23.9999C46.2797 11.4703 36.1223 1.31287 23.5927 1.31287C22.5819 1.31287 21.5868 1.37895 20.611 1.50704C21.2414 1.45193 21.8794 1.42379 22.5241 1.42379C34.4968 1.42379 44.2027 11.1297 44.2027 23.1025C44.2027 35.0751 34.4968 44.781 22.5241 44.781C11.1891 44.781 1.88589 36.0817 0.92694 24.9953C1.44788 37.0632 11.3963 46.6871 23.5927 46.6871C36.1223 46.6871 46.2797 36.5297 46.2797 23.9999ZM43.2972 23.1025C43.2972 11.6297 33.9968 2.32928 22.5241 2.32928C21.5926 2.32928 20.6753 2.3906 19.7762 2.50942C20.3298 2.46284 20.8899 2.43907 21.4556 2.43907C32.3713 2.43907 41.2203 11.2881 41.2203 22.2037C41.2203 33.1195 32.3713 41.9684 21.4556 41.9684C11.1345 41.9684 2.66111 34.0572 1.76864 23.968C2.2224 35.0393 11.3414 43.8756 22.5241 43.8756C33.9968 43.8756 43.2972 34.5751 43.2972 23.1025ZM21.4556 3.34457C31.8712 3.34457 40.3148 11.7881 40.3148 22.2037C40.3148 32.6193 31.8712 41.0628 21.4556 41.0628C11.2813 41.0628 2.98871 33.006 2.60997 22.9243C3.42768 32.024 11.0746 39.1556 20.3872 39.1556C30.2451 39.1556 38.2367 31.1642 38.2367 21.3061C38.2367 11.4481 30.2451 3.45661 20.3872 3.45661C19.8772 3.45661 19.3722 3.478 18.873 3.51992C19.7174 3.4043 20.5795 3.34457 21.4556 3.34457ZM37.3311 21.3061C37.3311 11.9482 29.7451 4.36211 20.3872 4.36211C19.5965 4.36211 18.8184 4.41626 18.0567 4.52106C18.4726 4.4885 18.8931 4.47192 19.3174 4.47192C28.1185 4.47192 35.2531 11.6065 35.2531 20.4075C35.2531 29.2084 28.1185 36.343 19.3174 36.343C11.0338 36.343 4.2264 30.0224 3.45478 21.941C3.78861 31.0047 11.2418 38.2502 20.3872 38.2502C29.7451 38.2502 37.3311 30.6641 37.3311 21.3061ZM19.3174 5.37741C27.6183 5.37741 34.3475 12.1066 34.3475 20.4075C34.3475 28.7083 27.6183 35.4375 19.3174 35.4375C11.1801 35.4375 4.55318 28.9708 4.29524 20.8962C4.9919 27.9888 10.9733 33.5303 18.249 33.5303C25.993 33.5303 32.2706 27.2526 32.2706 19.5087C32.2706 11.7648 25.993 5.48719 18.249 5.48719C17.8939 5.48719 17.5418 5.50039 17.1933 5.52633C17.8873 5.42817 18.5964 5.37741 19.3174 5.37741ZM31.3651 19.5087C31.3651 12.2649 25.4928 6.39269 18.249 6.39269C17.5877 6.39269 16.938 6.44162 16.303 6.53605C16.5928 6.5153 16.8855 6.50473 17.1806 6.50473C23.8667 6.50473 29.287 11.925 29.287 18.6111C29.287 25.2974 23.8667 30.7176 17.1806 30.7176C10.9152 30.7176 5.7615 25.9583 5.1375 19.8577C5.3225 26.9402 11.1219 32.6249 18.249 32.6249C25.4928 32.6249 31.3651 26.7525 31.3651 19.5087ZM17.1806 7.41023C23.3667 7.41023 28.3814 12.425 28.3814 18.6111C28.3814 24.7973 23.3667 29.8121 17.1806 29.8121C11.0732 29.8121 6.10743 24.9241 5.98203 18.8468C6.54621 23.9421 10.8664 27.9049 16.1121 27.9049C21.7412 27.9049 26.3045 23.3416 26.3045 17.7125C26.3045 12.0834 21.7412 7.52002 16.1121 7.52002C15.8968 7.52002 15.6831 7.52669 15.4711 7.53985C16.0285 7.4545 16.5993 7.41023 17.1806 7.41023ZM25.3991 17.7125C25.3991 12.5834 21.2412 8.42552 16.1121 8.42552C15.597 8.42552 15.0918 8.46744 14.5995 8.54808C14.7462 8.54035 14.8938 8.53644 15.0425 8.53644C19.6144 8.53644 23.3209 12.2428 23.3209 16.8149C23.3209 21.387 19.6144 25.0934 15.0425 25.0934C10.8149 25.0934 7.32741 21.9244 6.82588 17.8324C6.89009 22.9062 11.0231 26.9994 16.1121 26.9994C21.2412 26.9994 25.3991 22.8416 25.3991 17.7125ZM15.0425 9.44192C19.1144 9.44192 22.4154 12.7429 22.4154 16.8149C22.4154 20.8869 19.1144 24.1878 15.0425 24.1878C10.9704 24.1878 7.66946 20.8869 7.66946 16.8149C7.66946 16.8052 7.66948 16.7953 7.66951 16.7856C8.09346 19.8887 10.7545 22.2796 13.974 22.2796C17.4884 22.2796 20.3373 19.4306 20.3373 15.9163C20.3373 12.4018 17.4884 9.55287 13.974 9.55287C13.8945 9.55287 13.8154 9.55431 13.7366 9.5572C14.1604 9.48146 14.5968 9.44192 15.0425 9.44192ZM19.4318 15.9163C19.4318 12.9019 16.9883 10.4584 13.974 10.4584C10.9597 10.4584 8.51611 12.9019 8.51611 15.9163C8.51611 18.9305 10.9597 21.374 13.974 21.374C16.9883 21.374 19.4318 18.9305 19.4318 15.9163Z" fill="#1A1414"/>
</svg>
