<svg width="25" height="25" viewBox="0 0 25 25" fill="none" xmlns="http://www.w3.org/2000/svg">
<path d="M5.64286 4.5C5.01071 4.5 4.5 5.01071 4.5 5.64286V9.07143C4.5 9.70357 5.01071 10.2143 5.64286 10.2143C6.275 10.2143 6.78571 9.70357 6.78571 9.07143V6.78571H9.07143C9.70357 6.78571 10.2143 6.275 10.2143 5.64286C10.2143 5.01071 9.70357 4.5 9.07143 4.5H5.64286ZM6.78571 15.9286C6.78571 15.2964 6.275 14.7857 5.64286 14.7857C5.01071 14.7857 4.5 15.2964 4.5 15.9286V19.3571C4.5 19.9893 5.01071 20.5 5.64286 20.5H9.07143C9.70357 20.5 10.2143 19.9893 10.2143 19.3571C10.2143 18.725 9.70357 18.2143 9.07143 18.2143H6.78571V15.9286ZM15.9286 4.5C15.2964 4.5 14.7857 5.01071 14.7857 5.64286C14.7857 6.275 15.2964 6.78571 15.9286 6.78571H18.2143V9.07143C18.2143 9.70357 18.725 10.2143 19.3571 10.2143C19.9893 10.2143 20.5 9.70357 20.5 9.07143V5.64286C20.5 5.01071 19.9893 4.5 19.3571 4.5H15.9286ZM20.5 15.9286C20.5 15.2964 19.9893 14.7857 19.3571 14.7857C18.725 14.7857 18.2143 15.2964 18.2143 15.9286V18.2143H15.9286C15.2964 18.2143 14.7857 18.725 14.7857 19.3571C14.7857 19.9893 15.2964 20.5 15.9286 20.5H19.3571C19.9893 20.5 20.5 19.9893 20.5 19.3571V15.9286Z" fill="#C81C1C"/>
</svg>
