<svg width="25" height="25" viewBox="0 0 25 25" fill="none" xmlns="http://www.w3.org/2000/svg">
<path d="M7.83334 6.91563C7.83334 6.6875 8.01772 6.5 8.24897 6.5C8.35834 6.5 8.46459 6.54375 8.54272 6.62188L9.00834 7.0875C8.89584 7.36875 8.83334 7.67812 8.83334 8C8.83334 8.62187 9.05834 9.1875 9.43334 9.625C9.26772 9.9125 9.30834 10.2844 9.55209 10.5312C9.84584 10.825 10.3208 10.825 10.6115 10.5312L13.8646 7.28125C14.1583 6.9875 14.1583 6.5125 13.8646 6.22187C13.6177 5.975 13.2458 5.9375 12.9583 6.10312C12.5208 5.725 11.9552 5.5 11.3333 5.5C11.0115 5.5 10.7021 5.5625 10.4208 5.67188L9.95522 5.20625C9.50209 4.75313 8.88647 4.5 8.24897 4.5C6.91459 4.5 5.83334 5.58125 5.83334 6.91563V12.5C5.28022 12.5 4.83334 12.9469 4.83334 13.5C4.83334 14.0531 5.28022 14.5 5.83334 14.5H19.8333C20.3865 14.5 20.8333 14.0531 20.8333 13.5C20.8333 12.9469 20.3865 12.5 19.8333 12.5H7.83334V6.91563ZM5.83334 15.5V16C5.83334 16.8875 6.22084 17.6875 6.83334 18.2375V19.5C6.83334 20.0531 7.28022 20.5 7.83334 20.5C8.38647 20.5 8.83334 20.0531 8.83334 19.5V19H16.8333V19.5C16.8333 20.0531 17.2802 20.5 17.8333 20.5C18.3865 20.5 18.8333 20.0531 18.8333 19.5V18.2375C19.4458 17.6875 19.8333 16.8906 19.8333 16V15.5H5.83334Z" fill="#C81C1C"/>
</svg>
