<svg width="25" height="25" viewBox="0 0 25 25" fill="none" xmlns="http://www.w3.org/2000/svg">
<path d="M4.96666 6.90002C5.40916 6.90002 5.76666 7.25752 5.76666 7.70002V14.1H11.3667V10.1C11.3667 9.65752 11.7242 9.30002 12.1667 9.30002H17.7667C19.0917 9.30002 20.1667 10.375 20.1667 11.7V17.3C20.1667 17.7425 19.8092 18.1 19.3667 18.1C18.9242 18.1 18.5667 17.7425 18.5667 17.3V16.5H12.9667H12.1667H5.76666V17.3C5.76666 17.7425 5.40916 18.1 4.96666 18.1C4.52416 18.1 4.16666 17.7425 4.16666 17.3V7.70002C4.16666 7.25752 4.52416 6.90002 4.96666 6.90002ZM8.56666 9.30002C9.0971 9.30002 9.6058 9.51074 9.98088 9.88581C10.356 10.2609 10.5667 10.7696 10.5667 11.3C10.5667 11.8305 10.356 12.3392 9.98088 12.7142C9.6058 13.0893 9.0971 13.3 8.56666 13.3C8.03623 13.3 7.52752 13.0893 7.15245 12.7142C6.77738 12.3392 6.56666 11.8305 6.56666 11.3C6.56666 10.7696 6.77738 10.2609 7.15245 9.88581C7.52752 9.51074 8.03623 9.30002 8.56666 9.30002Z" fill="#C81C1C"/>
</svg>
