<svg width="36" height="37" viewBox="0 0 36 37" fill="none" xmlns="http://www.w3.org/2000/svg">
<rect x="35.5" y="36" width="35" height="35" rx="17.5" transform="rotate(-180 35.5 36)" fill="white"/>
<rect x="35.5" y="36" width="35" height="35" rx="17.5" transform="rotate(-180 35.5 36)" stroke="#EFF5F4"/>
<path d="M10.3348 17.6928C9.88839 18.1393 9.88839 18.8643 10.3348 19.3108L16.0494 25.0254C16.4959 25.4718 17.2209 25.4718 17.6674 25.0254C18.1138 24.5789 18.1138 23.8539 17.6674 23.4074L13.8993 19.6429L24.8571 19.6429C25.4893 19.6429 26 19.1322 26 18.5C26 17.8678 25.4893 17.3571 24.8571 17.3571L13.9029 17.3571L17.6638 13.5926C18.1103 13.1462 18.1103 12.4211 17.6638 11.9747C17.2174 11.5282 16.4923 11.5282 16.0459 11.9747L10.3313 17.6893L10.3348 17.6928Z" fill="black"/>
</svg>
