<svg width="36" height="36" viewBox="0 0 36 36" fill="none" xmlns="http://www.w3.org/2000/svg">
<rect x="0.5" y="0.5" width="35" height="35" rx="17.5" fill="white"/>
<rect x="0.5" y="0.5" width="35" height="35" rx="17.5" stroke="#EFF5F4"/>
<path d="M25.6652 18.8072C26.1116 18.3607 26.1116 17.6357 25.6652 17.1892L19.9506 11.4746C19.5041 11.0282 18.7791 11.0282 18.3326 11.4746C17.8862 11.9211 17.8862 12.6461 18.3326 13.0926L22.1007 16.8571H11.1429C10.5107 16.8571 10 17.3678 10 18C10 18.6322 10.5107 19.1429 11.1429 19.1429H22.0971L18.3362 22.9074C17.8897 23.3538 17.8897 24.0789 18.3362 24.5253C18.7826 24.9718 19.5077 24.9718 19.9541 24.5253L25.6687 18.8107L25.6652 18.8072Z" fill="black"/>
</svg>
