<svg width="16" height="16" viewBox="0 0 16 16" fill="none" xmlns="http://www.w3.org/2000/svg">
<path d="M13.0006 6.49875C13.0006 7.9332 12.535 9.25826 11.7506 10.3333L15.707 14.2929C16.0977 14.6835 16.0977 15.3179 15.707 15.7086C15.3164 16.0992 14.682 16.0992 14.2913 15.7086L10.3349 11.749C9.25983 12.5365 7.93476 12.9991 6.50032 12.9991C2.90952 12.9991 0 10.0896 0 6.49875C0 2.90795 2.90952 -0.00156403 6.50032 -0.00156403C10.0911 -0.00156403 13.0006 2.90795 13.0006 6.49875ZM6.50032 10.999C7.09129 10.999 7.67649 10.8826 8.22248 10.6564C8.76847 10.4303 9.26457 10.0988 9.68245 9.68089C10.1003 9.26301 10.4318 8.7669 10.658 8.22091C10.8841 7.67492 11.0005 7.08973 11.0005 6.49875C11.0005 5.90778 10.8841 5.32259 10.658 4.77659C10.4318 4.2306 10.1003 3.7345 9.68245 3.31662C9.26457 2.89873 8.76847 2.56725 8.22248 2.34109C7.67649 2.11494 7.09129 1.99853 6.50032 1.99853C5.90934 1.99853 5.32415 2.11494 4.77816 2.34109C4.23217 2.56725 3.73607 2.89873 3.31818 3.31662C2.9003 3.7345 2.56881 4.2306 2.34266 4.77659C2.1165 5.32259 2.0001 5.90778 2.0001 6.49875C2.0001 7.08973 2.1165 7.67492 2.34266 8.22091C2.56881 8.7669 2.9003 9.26301 3.31818 9.68089C3.73607 10.0988 4.23217 10.4303 4.77816 10.6564C5.32415 10.8826 5.90934 10.999 6.50032 10.999Z" fill="white"/>
</svg>
